<?xml version="1.0" standalone="yes"?>
<svg xmlns="http://www.w3.org/2000/svg" width="480" height="640">

<path style="fill:#999999;stroke:none;" d="M222 0C225.142 2.69189 226.755 5.03888 228 9C220.658 10.276 225.995 15.1648 225.285 19.9962C224.271 26.8926 217.96 28.3892 222 36C225.489 34.2009 227.346 32.97 228 29C226.985 30.1393 226.691 30.6116 226 32C224.521 31.0143 224.797 31 223 31C226.335 23.5859 228.061 20.396 227 12C229.544 11.3342 233.093 8.50739 235.73 9.42126C238.562 10.4029 239.086 14.3777 241.532 15.9722C246.138 18.9741 257.091 16.4306 258 11C257.317 12.5062 257.174 13.3147 257 15C251.781 14.0269 243.073 12.8944 245.603 5.13037C246.223 3.22473 247.947 1.66974 249 0L222 0z"/>

<path style="fill:#999999;stroke:none;" d="M257 0C257.501 3.78479 258.887 7.12012 259 11C260.413 7.67346 261.162 3.5661 262 0L257 0M265 0C266.016 7.81641 268.395 8.99408 276 9C272.485 6.17743 270.2 4.54572 269 0L265 0z"/>

<path style="fill:#999999;stroke:none;" d="M337 0C336.793 1.41766 336.759 2.72699 336.062 4.02545C332.147 11.3123 327.142 6.87518 321 6L321 9L325 9C325.27 11.6873 325.818 13.5703 327 16L332 15C332.66 19.2816 334.536 21.4789 338 24C334.064 16.3065 337.959 3.35956 348.91 6.55017C356.037 8.62628 357.982 16.0236 364.174 19.0262C369.174 21.4515 377.73 18.7283 379.547 26.0401C380.981 31.8116 373.178 36.1548 371 41C375.492 38.8839 380.481 34.7802 385.83 36.3179C392.199 38.1484 397.683 46.3236 404.961 44.5548C410.62 43.1796 410.803 38.1833 413.584 34.169C415.813 30.9519 418.733 28.3998 420.855 25.0386C422.543 22.3649 424.625 18.2054 427.981 17.331C430.969 16.5525 431.741 19.7648 431.941 22.0046C432.444 27.6229 431.929 35.1232 439.054 36.6551C442.364 37.3667 448.65 37.1805 450.976 34.2723C453.301 31.3666 452.248 24.8181 457.957 25.5818C461.185 26.0136 461.973 29.3939 462.806 32.0038C464.896 38.5562 458.319 49.0157 469.004 50.8326C470.266 51.0471 471.794 50.8405 472.985 50.3958C477.262 48.798 481.88 40.9721 478.958 36.5725C476.025 32.1577 471.027 34.4407 470 28C465.254 26.572 462.45 22.525 457 23.1381C450.278 23.8943 447.296 29.9138 440 30C439.024 26.4237 434.743 23.5434 434.708 19.9105C434.631 11.9163 446.155 6.07837 450 0C444.276 2.24377 438.995 4.5025 433 6C429.251 -1.62366 422.473 0 415 0L371 0C371.925 3.24036 372.988 4.49524 376 6C375.622 7.90906 375.39 10.0625 374.486 11.8163C369.076 22.313 359.151 11.3312 355.296 6.00464C354.111 4.36755 353.073 2.19757 351.367 1.02777C347.927 -1.33032 341.004 0 337 0z"/>

<path style="fill:#999999;stroke:none;" d="M459 0C461.04 2.87994 463.12 4.96014 466 7L465 0L459 0z"/>
<path style="fill:#999999;stroke:none;" d="M29 12L29 9C22.721 9.2038 14.1816 15.0902 19.3179 22.2106C21.7611 25.5977 32.8081 29.3214 36.9606 29.4082C40.2137 29.4762 41.519 26.6944 44.1289 25.3132C48.6457 22.9229 55.5946 23.0189 58.973 18.4159C62.318 13.8585 58.8931 8.81635 54 9C53.2095 7.52356 52.5499 6.34802 51.2755 5.20062C41.0545 -4.0014 37.8174 11.0069 29 12z"/>

<path style="fill:#999999;stroke:none;" d="M309 5C310.506 5.68311 311.315 5.82593 313 6C311.494 5.31689 310.685 5.17407 309 5M297 8C300.368 7.198 303.545 7.00952 307 7C303.756 5.63861 299.437 5.211 297 8z"/>

<path style="fill:#999999;stroke:none;" d="M287 8C289.603 9.56122 291.978 9.86212 295 10C292.412 8.62231 289.92 8.23865 287 8M296 8L297 9L296 8M313 8C312.438 9.80054 312.176 11.1218 312 13C315.17 12.8273 317.136 12.6436 319 10C316.637 9.69171 315.075 9.17023 313 8M467 8L467 10L469 10L469 8L467 8M277 9L278 10L277 9M469 10C470.678 16.3541 474.207 16.6003 480 18L480 9C475.999 9.52887 473.096 10.8638 469 10M278.667 10.3333C278.222 10.7779 279.278 10.7222 279.333 10.6667C279.778 10.2223 278.722 10.2777 278.667 10.3333M284 10L285 11L284 10z"/>

<path style="fill:#999999;stroke:none;" d="M298 26C298.659 28.6092 299.687 30.6398 301 33C302.061 29.7474 300.802 27.7668 298 26M267 28L270 33C268.521 32.0143 268.797 32 267 32L270 37C267.645 36.1324 265.469 35.4264 263 35L267 40C268.662 39.3872 269.483 38.9574 271 38C271.691 42.7113 274.824 45.0594 279 47C277.572 43.0265 274.712 39.8856 273 36C274.945 37.8624 276.794 39.4683 279 41C277.584 34.5768 273.281 30.0273 267 28M286 29L286 34C286.83 31.9695 286.83 31.0306 286 29M341 29L342 30L341 29M342 30L343 31L342 30M349 31L347 34C348.517 34.9574 349.338 35.3871 351 36C350.52 34.0405 350.062 32.6932 349 31M344 32C345.248 32.6848 345.548 32.7488 347 33C345.752 32.3152 345.452 32.2512 344 32M419.558 33.0278C410.228 39.3262 420.019 53.3922 429.566 46.821C437.38 41.4431 427.714 27.5212 419.558 33.0278M353 35L354 36L353 35M258 36C258.899 38.1237 258.876 38.1007 261 39C260.101 36.8765 260.124 36.8993 258 36M354 37L355 38L354 37M220 38L221 39L220 38M218 39L219 40L218 39M217 40L218 41L217 40M355 40L355 43C355.696 41.4463 355.696 41.5536 355 40M215 41L216 42L215 41M214 42L215 43L214 42M213 43L214 44L213 43M357 46C361.501 49.8284 365.398 47.8552 368 43C364.106 43.3984 360.735 44.9349 357 46M212 44L213 45L212 44M217 47C219.434 46.3486 220.283 45.8398 222 44C219.457 44.5257 218.465 44.8779 217 47M263 44C264.704 47.1553 266.714 48.5948 270 50C268.096 46.8075 266.595 45.0547 263 44M356 44L357 45L356 44M148 56C155.104 55.9992 161.715 56.689 162 48C157.898 47.0859 146.075 42.7969 146.603 50.9946C146.709 52.6485 147.517 54.4333 148 56M256 54C256.875 58.0818 265.084 58.5722 269 59C264.993 54.8371 261.613 53.6 256 54M234.667 57.3333C234.222 57.7778 235.278 57.7222 235.333 57.6667C235.778 57.222 234.722 57.2777 234.667 57.3333M255 60C256.751 61.2549 257.857 61.6136 260 62C258.307 60.9376 256.96 60.4805 255 60M241 89L240 85C238.686 85.7679 238.768 85.6858 238 87C236.521 86.0143 236.797 86 235 86C231.68 92.7158 233.637 96.3557 236 103C233.428 99.8615 231.739 96.649 230 93C229.315 94.2486 229.251 94.5482 229 96C222.084 96.272 221.119 103.28 221 109C219.795 106.345 218.642 103.842 218 101C214.683 103.807 209.828 107.616 207.858 111.514C206.195 114.804 207.073 119.436 206.985 123C206.771 131.748 207 140.222 207 149C208.516 146.445 209.394 143.907 210 141C214.704 140.242 216.667 136.199 221.004 134.832C224.277 133.8 228.583 134.972 232 135C232.299 131.952 233.321 129.273 237.008 129.377C241.029 129.49 242.946 133.242 246.17 134.93C248.257 136.022 250.74 135.904 252.91 136.797C255.425 137.831 257.428 139.652 260.039 140.522C263.808 141.778 268.767 142.321 270.846 146.264C273.122 150.58 269.921 155.145 268.369 159.09C266.321 164.295 266.099 169.862 264.274 175C262.929 178.785 260.599 180.847 261 185C252.591 187.307 249.935 196.124 241 198C240.637 194.564 240.637 191.436 241 188C235.707 188.27 228.825 188.054 224 190C224.545 188.365 224.365 188.545 226 188L226 186C224.365 185.455 224.545 185.635 224 184L220 186C219.11 182.637 218.652 178.279 216 176C218.468 167.977 220.47 161.787 228 156.962C233.149 153.663 243.874 153.484 245 147C239.506 146.768 226.871 145.584 226 153L222 152L221 155C212.925 155.328 208.08 163.872 206.754 171C205.159 179.572 203.809 189.264 204.745 198C205.395 204.078 207.732 209.766 208 216C206.167 211.392 204.259 206.994 204 202L201 203C199.005 196.153 201.784 193.217 202.531 186.83C202.985 182.948 200.721 179.518 199.567 176.001C198.086 171.484 198.706 169.24 194 167C195.169 164.694 195.878 163.825 194 162C194.644 159.894 194.906 158.205 195 156C190.314 161.28 179.474 166.759 175.747 156.981C174.187 152.889 176.734 148.179 177 144C181.333 142.536 183.853 138.17 188 136C185.105 132.001 182.083 133.633 179.155 136.969C175.221 141.453 171.831 146.47 169.529 152C166.378 159.568 171.381 164.629 171.602 172C171.801 178.665 167.505 183.896 169.649 191C171.839 198.257 183.266 208.174 174.436 216.258C168.966 221.265 158.294 215.978 152 216.008C144.516 216.045 138.976 221.101 133 225C133.962 219.025 139.589 216.646 142.874 211.914C148.694 203.53 150.999 196.142 151 186C157.39 183.919 163.872 168.357 158.258 162.742C155.035 159.519 147.168 161 143 161C144.152 155.921 147.604 151.955 149.058 147C150.642 141.6 150 135.564 150 130C147.449 129.212 145.103 128.057 144.812 124.981C144.586 122.58 146.172 120.268 146.741 118C149.034 108.858 154.22 95.5242 141.999 91.6882C139.848 91.0129 137.471 90.8682 135.285 91.4745C130.278 92.864 126.009 96.4427 121 98C126.294 99.6276 133.219 97.2853 139 98C139.051 104.122 142.429 110.037 141.852 116C141.121 123.555 135.648 127.803 137 136C142.931 137.873 142.286 143.772 141.181 149C139.536 156.787 133.373 161.78 131.433 169C129.196 177.325 131.224 183.276 140 184C141.193 187.413 144.761 189.333 145.473 193.005C148.058 206.337 130.458 212.61 122 218C122.868 220.6 124.721 223.242 124.758 226.039C124.859 233.546 115.347 238.05 110.927 242.819C107.489 246.529 105.478 251.076 101.115 253.941C97.6847 256.194 92.4054 255.091 89.7423 258.318C87.1905 261.41 88.208 266.102 86.0216 269.522C83.3712 273.667 78.5641 275.9 75.8789 280.09C72.0424 286.076 72.5835 293.695 65.9066 298.147C62.5755 300.368 54.0965 304.043 51.179 299.682C48.992 296.413 50.4207 291.693 49.8526 288.039C49.2756 284.328 46.104 281.918 46.2431 277.996C46.4964 270.854 49.9797 264.359 50 257C47.702 257.008 45.2677 256.843 43.0378 257.509C34.8366 259.961 33.784 268.344 28.8704 274.025C21.6631 282.358 11.1964 289.968 0 290L0 310C2.16308 309.416 4.36514 308.981 5.39815 306.721C7.43328 302.27 4.43184 294.612 11.9653 294.277C14.7629 294.153 17.3532 295.961 20.0394 296.522C24.5127 297.455 29.4529 297.071 34 296.995C36.6615 296.951 41.1554 295.18 43.5671 296.287C45.6599 297.248 45.7916 300.014 46.6983 301.83C48.7928 306.026 53.3653 308.688 57.9961 307.307C64.8447 305.265 71.516 298.272 74.5008 291.985C76.5384 287.694 77.5442 281.636 82.0579 279.179C85.0766 277.536 94.761 274.734 98 275.488C101.587 276.323 104.279 279.143 108 279.775C112.645 280.564 117.402 279.581 122 279C122.032 282.85 122.014 287.257 124.275 290.585C129.313 298.001 146.901 302.753 153.49 295.517C159.137 289.316 154.836 277.568 161.148 272.727C169.186 266.562 180.219 265.638 187.272 257.316C193.67 249.767 184.243 246.17 178 247.263C173.823 247.995 170.328 249.799 166 250C164.857 245.751 162.336 242.505 162 238C165.782 238.78 170.113 240.501 174 239.671C183.368 237.671 190.609 226.941 191 218C195.301 216.75 197.813 213.832 200 210C203.393 214.694 203.63 219.936 209 223L208 217C209.517 217.957 210.339 218.387 212 219C211.026 224.214 213.526 227.128 214.654 232C216.309 239.154 213.434 248.001 221 253L222 247C225.223 247.691 228.182 248.761 229 245C229.722 247.418 229.948 249.472 230 252C232.175 251.415 233.244 250.427 235 249C233.554 253.446 232.346 257.95 230 262L233 267C235.767 264.661 237.733 262.507 236 259L233 262C234.707 259.104 235.366 257.345 235 254C238.11 251.283 237 245.896 237 242L234 242C233.894 237.973 232.568 230.701 238 230L236 226L239 227C242.293 221.598 248.471 219.355 251.674 213.91C255.169 207.97 254.303 200.887 257.456 195.054C258.94 192.308 261.524 190.744 264 189C264 192.354 264.452 191.471 267 193L266 194L270 193C269.551 198.9 266.626 201.077 261 199C258.642 204.802 256.052 210.694 264 213C264.469 209.512 266.917 211.184 269 213.028C271.503 215.243 276.427 219.797 277.25 223.194C277.961 226.132 272.966 228.754 271 230.139C266.602 233.238 261.148 232.559 256 233.083C251.895 233.501 248.017 235.173 244 236L243 241C259.215 239.09 275.637 238.338 292 238C289.894 238.644 288.205 238.906 286 239C290.289 240.8 294.517 239.379 299 239.259C302.65 239.162 306.325 239.97 310 240L309 238C313.113 238 316.983 238.044 321 239C319.638 240.89 318.88 242.665 317 244C318.248 244.685 318.548 244.749 320 245C319.772 252.054 315.203 258.002 314 265C311.261 265.211 310.578 265.303 310 268L309 264C306.601 264.566 304.461 264.951 302 265C300.372 269.402 302.057 272.549 302 277C300.814 275.814 300.416 275.472 299 275L298 279L289 278L289 282C286.758 280.944 286.423 280.819 284 281C282.736 277.817 281.211 277.062 278 276L278 279C275.71 277.919 274.51 277.684 272 278C272.361 275.299 272.034 272.736 272 270L269 271C271.333 268.327 273.392 266.109 277.004 265.343C280.966 264.503 286.801 265.502 290.106 262.686C293.03 260.195 291.587 256.18 288.852 254.291C285.727 252.133 282.537 252.592 279 253L279 249L274 249L273 242C268.879 242.223 265.912 244.2 262.001 245.019C258.535 245.745 254.523 245.138 251 245C251.92 251.652 254.049 261.809 261.34 264.486C263.957 265.447 267.259 265 270 265C266.685 267.545 263.194 268.77 262 273C260.521 272.014 260.797 272 259 272C259.768 273.314 259.686 273.232 261 274L260 278L264 277C265.075 279.035 266.733 279.369 269 280L270 286C272.232 286.791 273.646 287.077 276 287C276.902 288.922 277.076 288.999 279 290L280 289L279 286C280.195 288.166 280.691 289.553 281 292C282.761 291.209 282.545 291.038 284 292C284.911 290.623 285.404 289.56 286 288L288 288C288 289.797 288.014 289.521 289 291C290.853 290.052 292.606 289.489 294 288C293.964 289.911 293.632 291.172 293 293L297 292C297.192 289.364 297.996 287.434 299 285C301.36 285.48 302.663 285.519 305 285L303 290C307.293 287.181 305.738 282.59 309 279C308.666 283.446 309.597 286.811 311 291C312.053 288.037 311.203 285.859 310 283C311.452 282.749 311.752 282.685 313 282C312.47 279.315 311.937 276.739 312 274L314 275C314.971 273.543 314.809 273.696 313 273C315.323 271.592 315.546 271.654 315 269L322 270C321.622 266.187 320.904 263.338 319 260C320.478 260.986 320.203 261 322 261L323 257C325.548 258.437 326.046 259.214 325 262C327.595 263.615 328.958 264.144 332 264C332 265.797 332.014 265.521 333 267C333.479 265.502 333.4 265.65 333 264L337 263L337 259L338 263C339.955 263.386 341.235 264.017 343 265C343 263.203 342.986 263.479 342 262C344.12 263.162 345.365 264.205 347 266C348.567 265.302 349.286 265.126 351 265C354.644 259.929 357.242 253.728 361 249C359.777 253.577 358.469 257.842 355.617 261.715C351.943 266.701 346.621 270.846 345 277C341.082 277.675 339.739 280.345 337 283C337 284.797 337.014 284.521 338 286C330.465 289.488 325.872 297.78 318.914 302.42C313.719 305.884 305.206 306.89 304 314C296.385 314.089 287.748 314.965 280.385 312.991C277.102 312.11 274.684 309.88 271.715 308.371C264.706 304.809 257.183 301.185 251.04 296.177C244.559 290.895 239.706 282.663 233 278C233.091 289.008 235.255 299.975 234.985 311C234.859 316.15 234.074 321.927 232.741 326.91C232.278 328.642 230.929 330.361 230.863 332.166C230.733 335.674 234.698 337.963 235.852 341.09C238.259 347.61 236.842 354.765 240.978 360.829C246.014 368.213 257.779 370.072 265.975 372.535C277.931 376.127 288.703 374.04 301 374.001C307.142 373.981 313.759 375.991 319.83 374.726C328.793 372.859 337.142 367.26 346 365C345.876 361.09 344.879 358.415 343 355C344.924 353.999 345.098 353.923 346 352C344.203 352 344.479 352.014 343 353L342 352C342.986 350.521 343 350.797 343 349C341.203 349 341.479 349.014 340 350C341.114 344.593 344.46 339.018 341 334L345 333C344.849 324.577 350.318 317.413 353.176 309.83C354.982 305.039 355.127 300.615 360 298C360.865 301.784 361.236 306.228 362.58 309.83C364.736 315.604 369.138 320.792 370 327C372.949 326.508 375.218 325.775 378 328L377 329C381.357 326.464 386.091 314.113 382.972 309.313C380.786 305.949 375.922 306.114 374.198 301.981C372.498 297.902 375.967 294.027 375.887 289.961C375.702 280.496 364.749 280.393 358 282L358 277C362.085 275.779 365.342 272.829 364.721 268.166C364.352 265.386 362.71 263.205 364.336 260.464C369.188 252.286 381.84 248.309 383 238C387.782 236.685 392.685 230.359 386 228C386.611 218.783 398.384 205.626 384 201C384.867 195.21 387.564 189.921 387.907 184C388.224 178.516 386.33 173.134 384.624 168C383.441 164.438 383.263 161.091 380 159C381.593 156.071 383.071 154.593 386 153L387 156C388.3 155.35 388 155.853 388 154L389 158C391.331 158.433 393.626 158.86 396.002 158.961C397.645 159.03 399.359 159.077 400.995 158.891C415.235 157.275 399.753 142.845 401.762 137C404.98 127.635 417.219 125.241 418.373 114.001C418.975 108.14 412.854 105.45 408.326 108.738C403.857 111.984 403.147 117.043 400.801 121.575C399.056 124.946 396.352 127.699 394.598 131.05C391.358 137.241 391.697 144.424 389 151L386 150C383.338 152.326 380.379 153.038 377 154L378 149C370.458 154.874 371.049 165.156 371 174C372.434 172.608 373.045 171.767 374 170C379.222 174.852 387.259 186.613 376 190C376.986 188.522 377 188.797 377 187C375.268 188.978 374.598 190.434 374 193C371.365 189.336 371.016 186.444 371 182C369.7 182.65 370 182.147 370 184C368.732 179.71 369.268 175.29 368 171C366.113 175.497 367.039 181.145 366.246 186C365.32 191.668 363.49 197.259 363.09 203C362.723 208.258 364.745 212.91 364.726 218C364.695 226.285 362.515 235.84 361 244C358.234 241.611 356.232 238.706 353 237L353 241C351.407 238.968 350.164 237.36 348 236C347.074 239.173 346.22 240.221 343 241C342.181 243.106 341.513 244.347 340 246L340 242C338.805 242.598 339.023 242.466 338 244C336.25 242.745 335.143 242.386 333 242C332.902 233.64 329.899 229.981 322 228L322 233C318.975 231.611 316.306 231.273 313 231L314 237C305.972 236.366 298.018 234.842 290 234.174C286.434 233.876 283.077 235.207 279.576 235.006C276.696 234.841 273.802 233.642 271 233L271 231C276.165 230.055 280.818 230.893 286 231C288.711 226.034 292.482 220.976 284 220C288.887 215.277 295.733 215.79 299 209C294.816 208.238 292.108 207.838 289 211C291.042 210.105 292.828 209.464 295 209C292.692 212.845 287.743 212.735 284 215C282.944 208.033 278.758 205.08 272 205C271.879 199.852 274.972 195.988 274.942 190.985C274.915 186.333 273.044 182.366 272.259 177.91C271.199 171.889 271.435 164.071 272.129 158C272.736 152.686 276.792 148.34 276.898 143.004C276.996 138.079 273.449 133.972 273 129C270.491 128.695 267.534 129.181 265.134 128.486C260.077 127.023 254.236 122.483 250.148 119.222C247.069 116.766 245.779 111.449 242 111C241.475 108.186 240.967 104.46 238 104C239.299 102.383 240.39 101.328 242 100C242.176 101.878 242.438 103.199 243 105C243.683 103.494 243.826 102.685 244 101L248 104C246.175 99.6592 240.64 94.2658 242.619 89.1883C244.845 83.4772 255.16 83.5681 259.91 80.6991C262.45 79.1653 264.401 76.8293 267.039 75.4553C276.165 70.7019 286.195 70.3452 296 68.7407C310.412 66.3824 323.349 64.8436 338 66C339.296 70.5435 342.41 71.4166 345.6 74.4807C348.594 77.3563 351.451 81.9874 352.471 86.0008C353.443 89.8265 354.461 94.9948 353.722 98.9105C353.252 101.404 351.543 103.416 351.679 106.039C351.956 111.372 353.882 116.75 354.741 122C357.106 136.456 358.351 150.156 364 164C365.715 158.422 362.276 152.444 361.12 147C358.682 135.513 358.705 123.363 356 112C358.508 112 357.582 110.29 357 108C360.969 106.683 362.153 102.825 365 100C363.451 94.7833 357.261 89.5275 359 84C352.447 77.1474 346.779 66.6236 337.996 62.5687C329.225 58.5191 318.093 60.361 309 61.7006C293.365 64.004 276.711 65.0217 263 73.4676C254.716 78.5703 241.802 77.0556 241 89M241 66L246 64C243.388 63.1268 242.453 63.7238 241 66M257.667 64.3333C257.222 64.7779 258.278 64.7222 258.333 64.6667C258.778 64.2223 257.722 64.2777 257.667 64.3333M359 64L359 69C361.217 70.1631 362.394 71.0863 364 73L360 72L365 80C362.623 79.689 362.017 79.7474 360 81C358.837 78.7832 357.914 77.6058 356 76C357.407 81.9359 361.484 90.0443 367 93C365.921 89.0263 363.313 85.902 362 82C364.131 84.7219 365.878 86.5204 369 88L365 80C367.388 81.6218 369.141 82.572 372 83L372 77L378 81C377.968 78.2988 378.104 75.5412 376.398 73.26C374.558 70.8002 371.982 70.0066 371 67C366.74 66.3422 363.046 65.5008 359 64M244 66C246.3 66.9157 247.377 66.8793 249 65L244 66z"/>

<path style="fill:#999999;stroke:none;" d="M238 70C239.58 69.3163 239.777 69.1953 241 68C239.42 68.6835 239.223 68.8049 238 70M242 78C245.134 75.094 246.539 72.2476 247 68C242.709 70.252 242.112 73.3658 242 78M415 156C415.026 158.865 414.584 162.771 417.434 164.486C421.803 167.115 427.327 165.332 432 165.34C441.035 165.354 454.808 172.444 462.941 167.142C470.141 162.449 463.716 157.025 465.657 151.108C466.641 148.107 469.912 147.01 471 144C475.562 143.333 478.621 141.508 480 137C475.019 138.488 471.465 142.254 465.999 141.902C458.624 141.427 457.964 136.926 453.857 132C450.972 128.539 447.652 125.93 449.078 121.018C450.72 115.363 456.712 113.375 460.871 109.911C467.88 104.072 470.55 93.4647 480 91L480 88C470.429 89.075 464.956 100.96 458.961 107.481C456.556 110.098 453.508 111.977 450 112.66C445.786 113.48 440.902 112.418 437.894 116.279C435.671 119.131 436.315 122.69 435.61 126C434.887 129.396 432.885 132.404 433.267 136C433.921 142.164 438.323 148.314 431.61 153.357C429.317 155.079 426.611 154.133 424 154.182C420.936 154.24 417.965 155.322 415 156z"/>

<path style="fill:#999999;stroke:none;" d="M98 134C97.0303 139.129 96.3486 146.351 93.1427 150.621C88.5005 156.805 79.1974 158.912 74.564 165.105C71.6883 168.948 72.9379 173.775 70.8603 177.826C68.2042 183.007 62.5436 184.539 58.5718 188.245C55.7526 190.875 55.147 194.544 52 197C50.4509 189.75 44.7659 185.569 42.6528 178.985C41.2787 174.704 43.6774 168.251 39.6821 165.148C33.0159 159.972 24.3758 164.145 19.0293 168.809C16.9665 170.608 14.3146 172.897 14.5463 175.945C14.768 178.862 17.4851 179.791 20.0046 179.772C25.438 179.729 29.7647 178.188 33.2762 183.62C36.9756 189.342 32.3409 191.411 30.6273 196.258C29.8681 198.405 30.6089 200.854 31 203L45 203C44.6534 204.358 44.4964 205.418 43.7222 206.616C42.7131 208.177 41.1195 210.783 38.9853 210.802C34.9361 210.837 32.9892 205.33 28.2593 208.032C25.0053 209.89 23.4013 214.132 20.5478 216.545C15.5432 220.777 8.14135 226.399 4.9892 232.304C3.33534 235.402 2.94295 243.486 3.26698 247C3.62223 250.853 6.14027 254.241 7 258C3.43092 258.197 1.24318 258.462 0 262C6.0161 261.983 10.6224 261.663 12 255C18.1273 255.558 21.025 260.545 27 261C27 256.251 27.9679 249.608 25.4861 245.317C24.0024 242.752 20.5094 242.707 18.1898 241.197C13.6896 238.267 13.6643 230.6 16.179 226.184C18.6579 221.832 25.1729 218.585 30 218.105C33.8186 217.725 38.13 218.78 41.5363 216.566C45.1668 214.207 47.4984 210.153 51.0039 207.568C56.298 203.663 63.5997 201.723 67.9298 196.454C69.6926 194.31 70.3527 191.433 71.9691 189.171C76.4601 182.883 82.0903 177.126 86.831 170.91C88.8321 168.287 90.0816 164.745 92.554 162.529C96.1483 159.307 99.939 162.525 103.867 161.164C108.427 159.585 109.421 152.554 112.295 149.17C113.946 147.226 116.634 145.622 117.248 142.98C118.223 138.787 111.898 136.632 109.285 134.627C101.438 128.602 87.6711 131.12 89.1883 117C89.9026 110.352 96.0228 96.478 104.011 96.3356C109.575 96.2365 113.981 100.933 120 101L120 99C112.178 98.9073 104.953 89.1039 97.1736 94.6034C86.0461 102.47 77.0711 133.319 98 134z"/>

<path style="fill:#999999;stroke:none;" d="M188 137L189 138L188 137M189 139L189 142C189.696 140.446 189.696 140.554 189 139z"/>

<path style="fill:#999999;stroke:none;" d="M190 144L191 145L190 144z"/>

<path style="fill:#999999;stroke:none;" d="M380 147C381.248 147.685 381.548 147.749 383 148C381.752 147.315 381.452 147.251 380 147M191.333 148.667C191.278 148.722 191.222 149.778 191.667 149.333C191.722 149.278 191.778 148.222 191.333 148.667z"/>


<path style="fill:#999999;stroke:none;" d="M243 165L244 166L243 165z"/>

<path style="fill:#999999;stroke:none;" d="M372 175L373 176L372 175M375.333 178.667C375.278 178.722 375.222 179.778 375.667 179.333C375.722 179.278 375.778 178.222 375.333 178.667z"/>
<path style="fill:#999999;stroke:none;" d="M308 201C309.192 205.266 311.702 208.673 316 210C316.657 204.058 313.598 201.89 308 201z"/>

<path style="fill:#999999;stroke:none;" d="M411 208C409.338 208.04 407.608 207.962 405.991 208.434C405.055 208.706 403.976 209.078 403.233 209.742C395.46 216.696 411.63 220.268 412.112 212.966C412.22 211.335 411.441 209.532 411 208z"/>
<path style="fill:#999999;stroke:none;" d="M368 211C369.248 211.685 369.548 211.749 371 212C369.752 211.315 369.452 211.251 368 211M367 213L367 217C367.71 215.24 367.71 214.759 367 213z"/>


<path style="fill:#999999;stroke:none;" d="M280.667 240.333C280.222 240.778 281.278 240.722 281.333 240.667C281.778 240.222 280.722 240.278 280.667 240.333M311 240C312.248 240.685 312.548 240.749 314 241C312.752 240.315 312.452 240.251 311 240M274.667 241.333C274.222 241.778 275.278 241.722 275.333 241.667C275.778 241.222 274.722 241.278 274.667 241.333M314 241L315 242L314 241M315 242L316 243L315 242z"/>

<path style="fill:#999999;stroke:none;" d="M337 264C337.406 266.092 337.217 266.02 339 267C338.316 265.42 338.195 265.223 337 264M332.333 269.667C332.278 269.722 332.222 270.778 332.667 270.333C332.722 270.278 332.778 269.222 332.333 269.667M254 276C254.545 277.635 254.365 277.455 256 278L256 276L254 276M416 319C413.346 316.127 410.866 315.35 407 315C408.199 311.408 411.159 309.129 412.437 305.7C413.682 302.359 412.13 298.386 414.027 295.228C416.883 290.473 427.624 287.449 424.356 279.343C422.731 275.31 416.364 275.387 413.376 277.585C407.694 281.763 407.341 287.493 403.992 292.996C401.362 297.317 394.357 299.499 392.851 304.167C391.701 307.731 395.36 309.598 398.012 310.83C404.329 313.767 409.017 317.399 416 319M95 280C90.655 280.051 76.8977 284.89 83.6042 291.382C90.8313 298.378 94.9018 284.607 95 280M261.333 286.667C261.278 286.722 261.222 287.778 261.667 287.333C261.722 287.278 261.778 286.222 261.333 286.667M303.333 292.667C303.278 292.722 303.222 293.778 303.667 293.333C303.722 293.278 303.778 292.222 303.333 292.667M219 333C217.854 324.126 214.543 315.202 225 311C213.539 306.382 212.191 328.209 219 333M296 312C297.769 312.779 299.036 312.912 301 313C299.231 312.221 297.964 312.088 296 312M0 318L0 332C8.27159 330.696 18.0343 318.78 26.2585 328.103C27.2576 329.236 27.5274 330.626 28 332C36.3694 331.97 38.908 328.256 39 320C35.4903 319.08 32.6287 316.697 28.9853 316.189C19.6603 314.889 9.36729 317.598 0 318M44 319L45 324C53.5606 323.719 51.8351 316.769 44 319M406 319C408 321.642 410.966 322.179 414 323.409C418.777 325.346 422.908 327.903 428 329C422.13 323.462 413.94 320.07 406 319M404 332C408.89 332.635 413.223 334.628 418.015 335.572C424.294 336.809 430.876 337.182 437 339.089C444.996 341.578 452.727 345.594 461 347C459.43 344.417 457.718 343.325 455 342C457.337 340.62 460.114 338.166 462.999 338.447C469.502 339.08 467.523 344.405 463 346C469.106 347.699 476.312 342.065 479 351C480.769 346.783 480 341.541 480 337C472.498 336.052 455.057 332.556 452 342C440.754 338.334 429.095 335.218 418 331.189C413.363 329.505 407.188 327.082 404 332M189 334C192.41 333.737 193.901 333.321 195 330C191.925 330.627 190.573 331.281 189 334z"/>

<path style="fill:#999999;stroke:none;" d="M185 347C189.497 346.904 193.59 345.648 198 345L198 341C193.087 341.932 187.938 342.581 185 347M398 342L398 346C402.989 346.214 408.665 348.623 412 344C407.243 342.492 402.977 342.003 398 342M427 346C433.532 348.932 441.976 348.888 449 350.5C459.467 352.902 469.602 356.588 480 359C477.284 355.031 471.434 354.108 467 352.685C455.159 348.887 439.394 343.051 427 346M188 358C193.866 357.996 199.258 357.114 205 356C202.75 349.608 190.977 353.768 188 358M115 370C119.102 368.457 122.716 366.028 127 364.899C137.774 362.061 149.147 361.591 160 359C152.522 355.862 144.419 359.497 137 360.905C132.38 361.782 127.44 361.633 123.004 363.248C119.296 364.597 116.728 366.476 115 370M448 358C454.961 364.55 470.82 364.81 480 365L480 363C469.235 361.632 458.863 358.007 448 358M40.3179 362.032C34.6387 365.692 41.4915 373.161 46.6821 369.816C52.3334 366.175 45.3622 358.782 40.3179 362.032M174 370C185.214 376.847 199.706 368.339 211 366C209.047 363.303 207.284 362.974 203.996 363.906C194.117 366.707 183.703 367.105 174 370M140 371C141.928 372.091 142.77 372.165 145 372C148.464 375.903 160.428 372.736 162 368C154.241 368 147.58 369.978 140 371M381 370C389.544 372.549 403.354 375.532 412 373C406.698 367.566 387.343 365.667 381 370M454 371C461.614 374.327 471.711 375.643 480 376L480 372C471.167 371.994 462.77 369.373 454 371M86 401C91.2437 398.555 94.8586 393.947 99.2855 390.294C103.939 386.454 109.064 383.685 114.015 380.326C118.108 377.549 120.95 374.675 126 374L126 372C114.28 372.106 103.252 383.441 95 391.089C91.7248 394.124 88.1042 397.058 86 401M186 381C188.425 384.726 191.995 383.593 196 382.996C204.059 381.796 210.582 378.07 219 378L219 375C214.755 375 210.163 374.516 206 375.459C199.156 377.01 193.069 380.087 186 381M150 383C150.208 384.661 150.495 384.54 149 385C155.583 388.493 162.191 383.918 169 383C163.611 377.335 156.543 382.425 150 383M87 429C87.683 427.494 87.8259 426.685 88 425L93 427C90.8102 422.541 85.4022 416.239 86.1327 411C86.7293 406.721 91.874 403.455 95 401.015C105.387 392.91 117.891 388.938 129 382C123.93 380.046 119.083 383.945 114.715 386.29C105.725 391.116 97.8793 394.197 90.0903 401.268C87.7304 403.41 84.3526 405.942 83.4306 409.129C81.456 415.954 86.6399 422.329 87 429M366 381C366.65 382.3 366.147 382 368 382L364 383C373.624 387.076 385.758 385.07 396 387C394.216 381.124 389.236 382.114 384 381.985C378 381.838 372.026 381.134 366 381M191 393C194.498 398.396 200.175 394.621 205.015 393.235C216.983 389.809 229.637 391 242 391C238.408 385.522 232.722 386.93 227 386.996C221.562 387.059 215.523 386.225 210.17 387.263C203.664 388.525 197.646 392.005 191 393M88 415C96.0128 411.778 103.076 406.248 111.039 402.976C121.033 398.869 130.455 398.333 141 397C138.235 392.735 131.645 393.748 127 394.09C117.042 394.825 104.534 401.213 96 406.204C91.985 408.553 88.7793 410.209 88 415M154 399C160.665 398.848 168.88 400.393 173 394C167.366 394.004 157.313 393.885 154 399M419 403C425.315 402.763 431.705 403.432 438 402.83C445.109 402.151 451.907 399.856 459 399.17C465.909 398.501 473.061 399 480 399L480 396C471.733 394.955 463.331 394.175 455 395.184C448.629 395.957 442.379 398.303 436 398.896C430.268 399.429 422.529 397.401 419 403M286 402C288.332 402.985 290.457 402.981 293 403C290.37 404.535 287.947 405.278 285 406C297.489 411.29 315.299 405.27 328 403.194C338.743 401.439 350.125 399.467 361 399.04C372.269 398.597 383.695 400 395 400C393.636 398.181 393.508 398.969 394 397C380.791 393.819 366.417 394.57 353 395.83C349.014 396.205 344.962 395.677 341 396.325C330.686 398.01 320.46 401.771 310 402.671C302.303 403.334 293.819 402 286 402M236 399C241.469 401.295 249.099 400 255 400C249.531 397.705 241.901 399 236 399M168 409C170.839 413.256 175.333 412.31 180 411.715C190.66 410.355 202.048 410.405 212 406C213.029 398.105 228.112 401 234 401C221.037 395.561 207.389 403.878 195 406.37C185.96 408.189 177.051 406.606 168 409z"/>

<path style="fill:#999999;stroke:none;" d="M259 400C262.959 401.661 267.737 401 272 401C268.041 399.339 263.263 400 259 400M276 401C277.506 401.683 278.315 401.826 280 402C278.494 401.317 277.685 401.174 276 401M241 404C243.89 405.213 246.874 404.998 250 405C247.036 403.68 244.21 403.643 241 404M213 405C218.959 407.5 227.564 406 234 406C228.547 403.066 219.185 405 213 405M254.667 404.333C254.222 404.778 255.278 404.722 255.333 404.667C255.778 404.222 254.722 404.278 254.667 404.333M256.667 405.333C256.222 405.778 257.278 405.722 257.333 405.667C257.778 405.222 256.722 405.278 256.667 405.333M259 405C260.506 405.683 261.315 405.826 263 406C261.494 405.317 260.685 405.174 259 405M263 406C267.952 408.078 275.566 407.767 281 408C276.833 404.843 268.057 405.144 263 406M281.667 406.333C281.222 406.778 282.278 406.722 282.333 406.667C282.778 406.222 281.722 406.278 281.667 406.333M103 417C104.283 421.609 102.207 422.661 98 424C98.7988 427.179 99.4718 430.083 101 433L94 428L94 432L90 431L90 434C87.9786 433.119 86.1459 432.504 84 432L86 438C82.0064 434.491 80.2705 429.096 79 424C77.1452 428.43 78.6427 432.781 80.5448 437C85.2151 447.359 93.8085 454.074 105 456C98.9671 451.995 91.9448 452.106 90 444C94.3763 445.656 98.2592 449.015 103 449.63C108.709 450.372 114.105 446.39 119 444C117.772 442.362 115.504 440.251 115.457 438.063C115.403 435.561 118.117 434.177 120.005 433.174C125.103 430.465 130.469 428.57 136 427C132.663 416.945 117.041 428.272 111 430L113 436C107.18 437.961 103.908 439.377 101 433C108.358 430.13 109.185 428.19 106 421C113.497 417.925 120.586 415.026 127 410L126 412C127.923 411.098 127.999 410.924 129 409C120.147 407.278 110.982 413.646 103 417M134 409C138.68 414.267 144.884 413.07 151 411L151 409C145.324 407.322 139.768 408.271 134 409M265 415C269.217 416.769 274.459 416 279 416L280 420C277.623 420.572 275.442 420.891 273 421C277.418 422.854 283.256 422.116 288 421.849C298.383 421.264 308.626 419.256 319 418.985C323.967 418.856 331.944 419.237 335 415C340.437 416.475 345.489 415.467 351 415.09C359.334 414.518 367.662 414.084 376 414.113C393.424 414.174 410.537 419.23 428 418.981C433.165 418.908 437.898 416.827 443 416.325C455.217 415.123 467.686 414 480 414L480 410C466.614 410 453.378 410.458 440.09 412.128C436.953 412.522 434.214 413.863 430.996 413.981C421.771 414.321 412.137 414.065 403 412.791C393.69 411.493 384.553 408.89 375.004 409.27C358.65 409.92 342.286 410.973 326 413.3C318.019 414.44 310.077 416.357 302 416.91C289.718 417.752 277.327 415 265 415M187 425C188.186 423.814 188.528 423.416 189 422C181.471 422 174.397 423.792 167 423.985C157.789 424.226 148.014 422.854 139 425L139 428C147.117 429.932 154.848 428.214 163 428.015C175.679 427.704 188.488 427.264 201 424.905C207.629 423.655 214.258 420.736 221 420.224C224.636 419.948 228.344 420.953 232 420.996C239.304 421.083 246.728 420.36 254 421L250 417C253.054 415.886 255.748 415.167 259 415C253.911 412.865 248.318 414.728 243 414.961C230.662 415.501 219.024 414.2 207 417.77C199.973 419.857 194.38 424.822 187 425z"/>

<path style="fill:#999999;stroke:none;" d="M96 426C94.0933 420.507 97.1493 419.041 102 417C95.1185 414.2 90.6849 420.79 96 426z"/>

<path style="fill:#999999;stroke:none;" d="M190 420C191.248 420.685 191.548 420.749 193 421C191.752 420.315 191.452 420.251 190 420z"/>

<path style="fill:#999999;stroke:none;" d="M256 420C258.332 420.985 260.457 420.981 263 421C260.668 420.015 258.543 420.019 256 420M266 421C268.052 421.874 269.747 421.953 272 422C269.948 421.126 268.253 421.047 266 421z"/>

<path style="fill:#999999;stroke:none;" d="M133 438C137.037 439.832 140.082 440.319 143 444L137 444C141.72 445.981 147.92 445 153 445C167.308 445 179.975 442.595 194 440.325C197.314 439.788 200.685 440.122 204 439.536C209.368 438.588 214.537 436.491 220 436.09C232.311 435.188 244.724 436.867 257 436C254.749 434.912 252.465 434.481 250 434C255.595 428.718 266.712 431 274 431L273 436C297.39 436 321.767 434.254 346 431.677C353.994 430.827 361.909 429.304 370 429.043C379.011 428.752 387.345 430.602 396.09 431.886C406.672 433.439 418.345 433.918 429 433.921C445.862 433.927 463.129 428.839 480 430L480 425C461.253 425 442.711 428.774 424 428.996C408.157 429.185 392.75 425.001 377 425C350.716 424.998 325.136 429.816 299 430.961C289.572 431.373 280.358 430.244 271 430.015C254.048 429.599 236.925 430.291 220 431.039C214.604 431.278 210.174 433.696 205 434.66C201.05 435.397 196.974 434.727 193 435.3C189.264 435.839 185.748 437.366 182 437.816C170.599 439.184 157.454 440.576 146 439.957C141.565 439.717 137.484 438.105 133 438z"/>

<path style="fill:#999999;stroke:none;" d="M258.667 435.333C258.222 435.778 259.278 435.722 259.333 435.667C259.778 435.222 258.722 435.278 258.667 435.333M262.667 435.333C262.222 435.778 263.278 435.722 263.333 435.667C263.778 435.222 262.722 435.278 262.667 435.333z"/>
<path style="fill:#999999;stroke:none;" d="M260.667 436.333C260.222 436.778 261.278 436.722 261.333 436.667C261.778 436.222 260.722 436.278 260.667 436.333M267.667 436.333C267.222 436.778 268.278 436.722 268.333 436.667C268.778 436.222 267.722 436.278 267.667 436.333M122 444L123 450C126.26 449.061 129.068 447.704 132 446C131.276 443.276 131.089 441.668 132 439L122 444z"/>

<path style="fill:#999999;stroke:none;" d="M258 445C263.715 447.398 271.831 446 278 446C271.113 454.225 255.793 451 246 451C250.469 452.875 256.191 452 261 452C272.724 452 284.317 450.551 296 450.039C322.033 448.899 347.951 444.819 374 445.005C386.697 445.095 399.237 448.513 412 449C410.752 448.315 410.452 448.251 409 448C410.54 447.068 412.052 445.944 414 446C415.936 446.055 417.703 446.936 416 448C419.959 449.661 424.74 449 429 449C438.706 449 448.333 447.749 458 447.09C464.023 446.679 470.16 447.726 476 446C473.85 440.651 467.985 441.943 463 442.004C458.503 442.059 454.428 443.551 450 443.907C441.457 444.593 432.56 444.262 424 444.05C416.706 443.87 409.266 444.522 402 443.83C390.86 442.769 380.252 439.87 369 440.004C349.009 440.242 328.942 443.545 309 444.91C291.972 446.077 275.09 445 258 445M72 444C72.3238 453.978 80.9742 457.016 88 462.221C93.1021 466 97.4747 470.325 104 471C101.227 469.209 99.1086 467.578 97 465C104.45 465.962 109.607 466.956 117 465C114.099 464.045 111.98 465.385 109 465.57C105.157 465.81 98.7359 464.799 95.2855 463.066C86.3344 458.569 81.3858 447.262 72 444z"/>

<path style="fill:#999999;stroke:none;" d="M148 455C152.939 457.072 158.752 456.087 164 458C158.54 461.058 140.417 464.167 140 455C135.755 456.161 131.823 457.824 128 460L129 465C143.207 460.969 157.426 461.875 172.001 459.869C187.764 457.699 203.247 453.569 219 452.104C227.535 451.311 236.429 452 245 452C239.517 449.699 232.928 452.734 228 449C231.765 448.951 235.088 447.117 239 447C229.328 442.941 216.758 447.652 207 449.246C187.326 452.461 168.003 455 148 455z"/>

<path style="fill:#999999;stroke:none;" d="M248 446C250.688 447.448 252.98 447.245 256 447C253.387 445.902 250.835 446.007 248 446z"/>

<path style="fill:#999999;stroke:none;" d="M115 453C117.99 454.133 120.105 453.224 123 452C120.199 451.22 117.803 452.263 115 453z"/>

<path style="fill:#999999;stroke:none;" d="M270 460C273.834 461.612 278.826 461.671 283 462C281.466 463.023 281.598 462.805 281 464C283.179 464.726 282.78 464.439 282 466C302.378 465.579 322.652 462.87 343 462.125C356.064 461.647 368.98 463 382 463C379.904 473.266 365.238 469.952 357 471.324C344.129 473.468 331.942 473.203 319 474.09C304.901 475.055 291.177 476 277 476C277.202 477.85 277.202 479.15 277 481C297.167 483.086 317.739 478 338 478C346.976 478 356.033 477.647 365 478.039C370.879 478.297 376.207 479.712 382 478L383 485C372.004 485 361.878 486.794 351 487.83C335.392 489.317 319.633 488.994 304 490.09C299.951 490.373 296.049 491.627 292 491.91C276.406 493.003 260.627 491 245 491L250 489C248.97 487.575 248.399 486.68 248 485C245.968 484.677 245.018 484.66 243 485C247.829 481.341 255.23 483.342 261 482C246.705 478.401 228.681 489.122 216 479C222.216 477.846 228.698 477.497 235 477C228.005 474.27 217.178 477.965 210 479.249C191.302 482.594 174.121 486.821 155 486C156.769 486.779 158.036 486.912 160 487C158.6 491.557 156.158 491.167 152 490C152.545 488.365 152.365 488.545 154 488C147.183 486.164 141.367 488.878 135 491C136.17 493.075 136.692 494.637 137 497C140.549 495.69 144.257 492.731 148 492.288C150.715 491.966 153.25 493.491 156 493.298C163.6 492.764 171.371 491.597 179 490.831C189.147 489.813 199.011 486.534 209.039 485.103C214.515 484.322 220.456 483.677 225.985 484.054C228.821 484.247 231.193 485.29 234 485L231 488L234 492C222.472 492.095 212.131 495.778 201 497.83C185.508 500.686 169.509 501.121 154 504L154 509C175.668 508.986 196.465 501.014 218 501C216.231 500.221 214.964 500.088 213 500C213.562 498.199 213.824 496.878 214 495C231.775 494.633 249.12 489.68 267 493L263 496C267.6 497.935 273.094 497.192 278 497.035C288.243 496.709 297.94 495.862 308 494.26C316.524 492.903 326.334 494 335 494C348.434 494 364.241 492.35 377 497C373.445 502.795 366.904 500.514 361 501.174C355.081 501.837 350.104 503.997 344 504C323.478 504.009 303.426 506.066 283 506.961C271.585 507.46 260.341 506.094 249 506C249.986 504.521 250 504.797 250 503C253.108 502.859 253.859 502.108 254 499L260 498C255.788 496.233 251.414 497.408 247 497.83C239.349 498.561 231.691 499 224 499C225.769 499.779 227.036 499.912 229 500C229.11 502.442 229.428 504.623 230 507L225 508C228.645 509.515 232.165 508.37 236 508.089C243.919 507.508 251.093 507.001 259 508C257.723 509.915 257.723 509.085 259 511L254 512C258.154 513.727 262.613 512.122 267 512.015C276.446 511.783 285.562 511.736 295 511.09C311.07 509.989 327.917 508.699 344 509.015C355.407 509.24 366.604 511.116 378 509C373.067 506.785 367.33 507.001 362 507C366.321 502.588 375.053 502.943 381 503.004C396.123 503.159 413.391 508.324 428 503C426.902 500.879 426.189 499.363 426 497C411.815 496.883 397.994 494.926 384 493.184C377.371 492.358 370.505 492.549 364 491L364 489C385.9 484.934 408.115 490.819 430 491C428.861 489.985 428.388 489.691 427 489L428 483C425.777 483.196 424.976 482.635 423 482L426 490C424.365 489.455 424.545 489.635 424 488C419.318 487.924 417.333 485.927 415 482C418.039 481.276 420.878 481.026 424 481C415.17 477.295 402.748 480.889 393.285 480.035C385.152 479.3 377.3 475.656 369 475L369 473C384.635 471.766 399.438 473.957 415 474C412.18 472.805 409.007 472.718 406 472L408 469L403 467C403.545 465.365 403.365 465.545 405 465C401.217 463.413 397.032 464.275 393 463.7C386.974 462.841 380.983 461.16 375 460C375.281 457.884 375.6 458.062 374 457C377.96 455.829 381.887 456 386 456C376.649 452.076 364.705 456.881 355 456.996C332.882 457.259 311.058 460.1 289 460.96C282.69 461.206 276.349 460 270 460M108 456C109.248 456.685 109.548 456.749 111 457C109.752 456.315 109.452 456.251 108 456z"/>

<path style="fill:#999999;stroke:none;" d="M387 456C391.058 458.158 395.491 457.997 400 458C395.933 456.046 391.456 456.012 387 456M401 458C405.724 459.982 411.91 459 417 459C412.276 457.018 406.09 458 401 458M125.667 459.333C125.222 459.778 126.278 459.722 126.333 459.667C126.778 459.222 125.722 459.278 125.667 459.333M418 459C420.324 460.524 422.153 461.9 424 464L407 464C412.807 466.437 420.774 464.849 427 464.849C442.707 464.849 458.418 464.331 474 465L474 459L445 460L418 459z"/>

<path style="fill:#999999;stroke:none;" d="M235 460C238.959 461.661 243.737 461 248 461C244.041 459.339 239.263 460 235 460M27 491C33.7146 488.195 32.6245 482.255 33.054 476C33.2821 472.678 35.6934 468.573 34.3781 465.329C32.0428 459.571 17.9044 459.591 13.1481 461.742C6.74079 464.641 12.3856 472.407 12.4329 477C12.4947 483.008 14.7753 488.424 15.0162 494.17C15.4368 504.202 12.7249 512.858 17.4205 522.656C19.049 526.054 25.2355 527.601 27.2585 523.682C29.6838 518.984 29 511.146 29 506C29 500.645 28.3652 496.16 27 491M121.667 461.333C121.222 461.778 122.278 461.722 122.333 461.667C122.778 461.222 121.722 461.278 121.667 461.333M118 480C123.087 481.5 129.044 477.356 134 476L134 481C144.772 476.591 155.562 478.126 167 476.82C182.792 475.017 198.286 470.64 214 469.103C226.672 467.864 240.666 469.936 253 467C249.765 465.759 246.407 466.822 242.999 466.961C235.518 467.266 227.304 467.739 220 466L220 464C222.673 463.149 225.226 462.41 228 462C224.144 460.618 219.915 462.261 216 463.115C209.476 464.537 202.594 465.764 196 466.855C185.465 468.598 174.7 470.496 164 470.961C159.017 471.177 153.906 469.74 149 470.478C138.068 472.125 128.629 477.481 118 480z"/>

<path style="fill:#999999;stroke:none;" d="M252 461C254.613 462.098 257.164 461.993 260 462C257.387 460.902 254.836 461.007 252 461M70 463C70.161 467.96 71.4294 470.797 76 473C74.0233 470.422 72.001 468.283 75 466C73.3369 464.497 72.104 463.801 70 463z"/>

<path style="fill:#999999;stroke:none;" d="M64 466L64 471L66 471L66 466L64 466z"/>

<path style="fill:#999999;stroke:none;" d="M126 466C127.248 466.685 127.548 466.749 129 467C127.752 466.315 127.452 466.251 126 466M254.667 466.333C254.222 466.778 255.278 466.722 255.333 466.667C255.778 466.222 254.722 466.278 254.667 466.333M257.667 466.333C257.222 466.778 258.278 466.722 258.333 466.667C258.778 466.222 257.722 466.278 257.667 466.333M261.667 466.333C261.222 466.778 262.278 466.722 262.333 466.667C262.778 466.222 261.722 466.278 261.667 466.333M264 466C265.769 466.779 267.036 466.912 269 467C267.231 466.221 265.964 466.088 264 466M271.667 466.333C271.222 466.778 272.278 466.722 272.333 466.667C272.778 466.222 271.722 466.278 271.667 466.333M276.667 466.333C276.222 466.778 277.278 466.722 277.333 466.667C277.778 466.222 276.722 466.278 276.667 466.333M77 467L78 468L77 467M118 469C120.851 469.844 123.183 468.889 126 468C123.149 467.156 120.817 468.111 118 469M80 469L81 470L80 469M114 473L118 471C115.588 469.645 114.568 470.351 114 473M81 471C82.2507 473.501 83.7353 474.686 82 477C93.6003 480.131 104.794 487.891 117 488L112 483L118 483C113.577 481.144 108.604 482.659 104 481.247C95.9053 478.765 89.3644 472.492 81 471M106 471C107.506 471.683 108.315 471.826 110 472C108.494 471.317 107.685 471.174 106 471z"/>

<path style="fill:#999999;stroke:none;" d="M110 472C111.248 472.685 111.548 472.749 113 473C111.752 472.315 111.452 472.251 110 472z"/>

<path style="fill:#999999;stroke:none;" d="M416 474C418.332 474.985 420.457 474.981 423 475C420.668 474.015 418.543 474.019 416 474M80 475L81 476L80 475M250 476C256.928 478.907 267.503 477 275 477C268.272 474.177 257.242 475.488 250 476M432 475L433 480C434.797 480 434.522 479.986 436 479C434.782 476.882 434.133 476.155 432 475M440 476C444.581 483.847 463.29 482.714 471 480L471 477C461.307 474.303 450.057 476 440 476z"/>

<path style="fill:#999999;stroke:none;" d="M266 481C269.163 482.327 272.586 482 276 482C272.742 480.364 269.573 480.792 266 481M426.667 480.333C426.222 480.778 427.278 480.722 427.333 480.667C427.778 480.222 426.722 480.278 426.667 480.333M262.667 481.333C262.222 481.778 263.278 481.722 263.333 481.667C263.778 481.222 262.722 481.278 262.667 481.333M431.667 481.333C431.222 481.778 432.278 481.722 432.333 481.667C432.778 481.222 431.722 481.278 431.667 481.333M131.667 482.333C131.222 482.778 132.278 482.722 132.333 482.667C132.778 482.222 131.722 482.278 131.667 482.333M61 483L61 487L63 487L63 483L61 483M71 483C71.7574 487.755 73.3764 490.38 78 492C77.5943 489.908 77.7833 489.98 76 489L80 487C77.1578 485.282 74.1738 483.978 71 483M126 484C127.943 484.622 128.949 484.436 131 484C129.057 483.378 128.051 483.564 126 484M124.667 485.333C124.222 485.778 125.278 485.722 125.333 485.667C125.778 485.222 124.722 485.278 124.667 485.333z"/>

<path style="fill:#999999;stroke:none;" d="M82 488C83.2484 488.685 83.5484 488.749 85 489C83.7517 488.315 83.4515 488.251 82 488z"/>

<path style="fill:#999999;stroke:none;" d="M85.6667 489.333C85.2222 489.778 86.2778 489.722 86.3333 489.667C86.7778 489.222 85.7222 489.278 85.6667 489.333M88 490C89.2484 490.685 89.5484 490.749 91 491C89.7517 490.315 89.4515 490.251 88 490M431 491C431.846 493.725 431.417 494.548 429 496C431.973 497.066 434.859 496.089 438 496.325C444.035 496.777 449.943 497.764 456 498.039C458.918 498.172 462.902 499.638 465.682 498.383C467.895 497.385 467.84 495.059 468 493C455.687 491.444 443.313 492.556 431 491M70 492L70 495C70.6961 493.446 70.6961 493.554 70 492M79.6667 492.333C79.2222 492.778 80.2778 492.722 80.3333 492.667C80.7778 492.222 79.7222 492.278 79.6667 492.333M93 492L94 493L93 492z"/>

<path style="fill:#999999;stroke:none;" d="M81 493C82.7505 494.255 83.8574 494.614 86 495C84.2495 493.745 83.1426 493.386 81 493M96 493C97.2484 493.685 97.5484 493.749 99 494C97.7517 493.315 97.4515 493.251 96 493M99 494C100.248 494.685 100.548 494.749 102 495C100.752 494.315 100.452 494.251 99 494z"/>
<path style="fill:#999999;stroke:none;" d="M86 495C87.2484 495.685 87.5484 495.749 89 496C87.7517 495.315 87.4515 495.251 86 495M102 495L105 499L101 500C107.2 502.783 115.268 502.996 122 503L120 499L124 499C120.831 497.67 117.391 498.095 114 497.561C109.945 496.922 106.056 495.596 102 495M129 495L130 496L129 495z"/>

<path style="fill:#999999;stroke:none;" d="M89.6667 496.333C89.2222 496.778 90.2778 496.722 90.3333 496.667C90.7777 496.222 89.7222 496.278 89.6667 496.333M92 497C93.2484 497.685 93.5484 497.749 95 498C93.7517 497.315 93.4515 497.251 92 497M124 497C125.248 497.685 125.548 497.749 127 498C125.752 497.315 125.452 497.251 124 497M95.6667 498.333C95.2222 498.778 96.2778 498.722 96.3333 498.667C96.7778 498.222 95.7222 498.278 95.6667 498.333M136 498L137 499L136 498M58 499L58 504C60.6265 503.161 61.1613 502.626 62 500L58 499M98 499C99.2484 499.685 99.5484 499.749 101 500C99.7517 499.315 99.4515 499.251 98 499M221.667 499.333C221.222 499.778 222.278 499.722 222.333 499.667C222.778 499.222 221.722 499.278 221.667 499.333M133 500L133 502C134.635 501.455 134.455 501.635 135 500L133 500M72 501C72.4339 503.723 72.9093 506.37 75.2785 508.142C78.0058 510.181 81.8567 509.93 85 510.904C94.3241 513.793 104.144 517.917 114 518C109.276 515.879 104.812 516.014 101 512L109 512C104.662 509.401 99.7663 510.459 95 509.239C87.1288 507.225 79.8111 503.229 72 501M130 502L131 503L130 502M123 503C125.332 503.985 127.457 503.981 130 504C127.668 503.015 125.543 503.019 123 503M143 507C145.894 507.881 148.188 507.049 151 506L151 504L150 503C147.28 503.937 145.318 505.303 143 507z"/>

<path style="fill:#999999;stroke:none;" d="M69 507C69.7807 509.943 70.3954 511.421 73 513C72.5031 509.793 71.8496 508.556 69 507z"/>

<path style="fill:#999999;stroke:none;" d="M429 507L428 512C429.475 510.065 429.791 509.307 429 507M433 510C439.877 512.921 448.575 514.07 456 514.826C461.181 515.353 464.56 514.511 465 509C456.229 509 439.599 503.261 433 510M127 514C129.052 514.874 130.747 514.953 133 515C132.014 516.479 132 516.203 132 518C134.085 518 133.724 517.862 134 520L129 520C133.551 521.707 136.843 517.867 140.035 514.911C141.362 513.682 143.861 510.699 141.377 509.16C138.521 507.392 130.303 513.208 127 514M221 509C222.248 509.685 222.548 509.749 224 510C222.752 509.315 222.452 509.251 221 509M381 509C381.532 512.013 382.481 514.346 384 517C373.842 517 364.08 518.519 354 518.961C344.348 519.383 334.652 518.617 325 519.039C313.638 519.537 302.345 521.134 291 521.911C272.967 523.145 254.047 523 236 523C241.822 525.443 247.994 522.274 253 527L249 528C254.685 530.35 262.881 528 269 528C287.679 527.999 306.164 525.322 325 526C322.407 524.48 320.531 523.648 319 521C325.275 520.505 330.726 519.835 337 521L337 523C334.124 523.396 332.747 523.679 331 526L388 526L388 533C380.779 532.087 373.287 531.359 366 532.174C361.518 532.676 357.55 534.816 353 534.982C336.359 535.588 319.632 534.232 303 535.04C299.237 535.223 295.738 536.606 292 536.907C277.098 538.104 261.965 538 247 538C251.041 539.696 255.737 539.446 260 541C252.227 544.893 242.523 545.779 234 547.486C229.207 548.446 224.752 547.289 222 552C221.014 550.521 221 550.797 221 549L216 549C215.992 546.89 216.051 545.83 217 544C212.874 542.735 208.292 544.769 204 544.961C190.169 545.577 176.725 549.411 163 550L164 556L168 556C169.114 549.016 177.878 548.314 184 548C183.697 550.294 183.422 551.211 182 553C186.261 553.421 191.513 550.822 196 550.286C203.858 549.345 212.092 550 220 550C219.371 552.584 219.693 553.653 217 554L219 559C226.996 558.835 235.115 557.211 243 555.92C248.89 554.956 253.866 554.037 258 559L255 560C259.368 560.921 264.502 558.605 269 558.17C277.069 557.389 285.913 557.521 294 558C292.542 556.919 291.752 556.564 290 556C296.206 551.123 302.429 552 310 552L310 556L304 556C307.959 557.661 312.74 557 317 557L340 557C350.014 557.016 360.004 559.226 370 559.911C381.236 560.68 392.738 560 404 560C403.455 561.635 403.635 561.455 402 562L402 564C403.267 565.543 403.489 566.048 404 568C393.787 568 384 565.366 374 565.018C369.057 564.847 364.813 566.448 360 566.896C352.448 567.598 344.584 567 337 567C307.272 567 278.462 565.527 249 571L259 573C249.364 578.597 236.064 580.525 225 581C227.806 582.146 230.071 581.692 233 581C233 582.797 233.014 582.521 234 584L240 584C240.726 581.821 240.439 582.22 242 583C245.404 578.6 249.877 578.223 255 576.858C267.248 573.594 280.348 573 293 573C291.162 570.529 288.985 570.5 286 570C293.005 566.328 299.769 565.731 306 571L301 571C305.877 573.329 310.795 572.406 316 572.086C321.962 571.721 328.028 571.972 334 572.001C352.864 572.092 370.902 578.546 390 575C384.678 578.514 380.079 581.652 373.715 583.081C366.649 584.667 357.305 583 350 583C332.28 583 314.72 582 297 582C298.506 582.683 299.315 582.826 301 583L297 585L297 588C309.673 587.709 322.296 587.204 335 588.089C343.688 588.695 352.321 590.627 361 591L361 586C374.526 584.291 388.358 584 402 584C408.97 584 416.183 583.377 423 585C422.198 581.632 422.01 578.455 422 575C430.315 575.486 440.192 575.126 446 582L451 581C450.908 583.796 451.491 586.25 452 589C442.162 588.919 432.861 586 423 586C423.626 593.207 414.389 591.932 409 591.996C393.623 592.178 378.365 590.958 363 591C365.331 591.984 367.457 591.981 370 592C368.053 592.714 367.066 592.919 365 593C364.46 595.501 363.737 597.47 364 600C339.885 600 316.092 597 292 597C295.404 598.429 299.364 598.134 303 599C299.727 601.759 297.296 602.863 293 603C297.763 604.98 303.883 603 309 603C319.857 603 332.304 603.036 343 604.754C350.886 606.021 359.933 606.093 359 616C337.278 616 315.686 612.483 294 613.015C282.731 613.291 271.183 615.579 260 617C264.697 618.833 269.079 617.506 274 620C272.521 620.986 272.797 621 271 621C275.891 622.504 281.888 620.164 287 620.014C303.236 619.538 318.813 619.264 335 620.83C340.891 621.4 348.411 619.994 353.721 623.314C356.538 625.075 357.469 629.2 359 632L355 632C360.546 634.327 367.197 632.458 373 632C374.556 629.15 375.793 628.497 379 628C376.876 625.933 375.963 625.711 373 626C370.06 622.636 363.26 623.783 359.004 622.811C355.358 621.979 353.352 619.731 351 617C362.42 617 373.639 616.897 385 616C383.156 613.392 381.081 613.316 378 613C379.478 612.014 379.203 612 381 612C373.474 603.707 361.343 611.009 355 601C365.06 601 374.997 600.26 385 600.015C390.155 599.888 395.693 600.649 399 596L392 597C392.986 595.521 393 595.797 393 594C398.655 594.875 404.428 594.673 410 596C411.789 594.578 412.706 594.303 415 594L413 598C416.987 599.424 420.899 600.02 425 601L424 591C433.315 592.063 441.813 595.757 451 597C443.892 604.051 436.344 602 427 602C426.274 606.448 423.959 607.37 420 609L420 611C421.84 612.717 422.349 613.566 423 616C427.346 617.368 431.433 618.636 436 619C429.633 615.582 428.21 615.183 426 608C431.759 608.135 437.346 609.934 443 611C441.022 609.268 439.565 608.598 437 608C443.999 603.11 455.553 606.636 464 604L464 595C457.297 597.424 451.86 595.142 445 595C447.762 585.902 458.28 593.766 462.972 587.347C464.415 585.374 463.992 582.294 464 580C456.895 580 452.449 580.039 447 575C452.639 573.953 458.537 574.615 464 573L464 578C465.731 573.757 464.038 568.552 464 564C459.805 564.519 456.195 564.519 452 564C453.248 564.685 453.548 564.749 455 565L454 571L457 572C445.264 574.158 433.806 570.001 422 570L422 575C412.93 575 404.019 575.014 395 574.17C389.36 573.642 385.69 574.765 381 571C393.689 567.944 407.046 569 420 569C417.948 568.126 416.253 568.047 414 568C415.534 566.977 415.402 567.195 416 566C415.329 563.797 415.908 562.272 416 560C421.348 559.578 426.603 558.53 432 559.184C438.451 559.967 444.587 562.914 451 564C449.954 561.214 450.452 560.437 453 559C441.505 553.977 427.316 553.226 415 552C417.025 549.288 417.341 547.356 417 544C424.149 543.455 431.88 543.092 439 544.329C445.084 545.386 450.744 548.516 457 548.902C462.314 549.23 464.608 547.144 465 542C453.337 542 441.549 540.148 430 538.575C427.084 538.178 419.486 538.165 419.117 534.037C418.759 530.025 424.877 527.537 428 527.475C438.359 527.266 447.785 531.194 458 532C456.637 529.547 455.615 527.437 459 527C448.387 522.503 436.115 524.063 425 522C422.762 529.437 414.361 528 408 528C399.024 528 391.699 525.462 383 524.29C375.511 523.281 367.549 524 360 524C367.53 515.822 383.855 519 394 519C393.198 515.972 392.311 513.124 392 510L381 509M157 519C157.712 528.143 169.529 524.201 176 523C174.057 522.378 173.051 522.564 171 523L171 518C174.784 517.728 178.363 517.597 179 522C182.721 521.422 186.027 519.555 189.715 518.99C200.273 517.371 211.326 517 222 517C219.387 515.902 216.836 516.007 214 516C214.202 514.15 214.202 512.85 214 511L221 511C214.709 508.361 207.367 512.134 201 513.25C193.958 514.485 187.016 514.421 180 515.428C172.126 516.559 165.04 518.995 157 519z"/>

<path style="fill:#999999;stroke:none;" d="M112.667 512.333C112.222 512.778 113.278 512.722 113.333 512.667C113.778 512.222 112.722 512.278 112.667 512.333M410 515L399 514L401 519L405 517C408.659 522.805 418.846 521.999 425 522C423.494 521.317 422.685 521.174 421 521C423.555 518.486 424.174 517.401 423 514L428 513C425.004 511.274 422.325 512.833 419 512.833C415.299 512.833 411.033 510.18 410 515M114 513C116.613 514.098 119.165 513.993 122 514C119.387 512.902 116.835 513.007 114 513M245 513C246.248 513.685 246.548 513.749 248 514C246.752 513.315 246.452 513.251 245 513M229.667 514.333C229.222 514.778 230.278 514.722 230.333 514.667C230.778 514.222 229.722 514.278 229.667 514.333M232.667 514.333C232.222 514.778 233.278 514.722 233.333 514.667C233.778 514.222 232.722 514.278 232.667 514.333M222 515C223.506 515.683 224.315 515.826 226 516C224.494 515.317 223.685 515.174 222 515z"/>

<path style="fill:#999999;stroke:none;" d="M117 518C119.829 519.271 122.916 519.608 126 520C123.15 518.053 120.41 518.03 117 518M76 520C76.8889 525.374 81.0884 526.274 86 527C83.8104 525.411 81.8528 523.989 80 522L84 521C81.3873 519.902 78.8355 520.007 76 520z"/>

<path style="fill:#999999;stroke:none;" d="M87 521C88.2484 521.685 88.5484 521.749 90 522C88.7516 521.315 88.4516 521.251 87 521M90 522C91.969 523.063 93.7984 523.532 96 524C93.9433 522.418 92.6125 522.174 90 522M121 531C124.055 536.839 134.479 539.288 140.471 536.142C144.277 534.143 147.363 528.036 148 524C142.338 524.427 140.726 528.501 135.91 530.397C131.653 532.072 125.52 531 121 531M227 524C229.052 524.874 230.747 524.953 233 525C230.948 524.126 229.253 524.047 227 524z"/>

<path style="fill:#999999;stroke:none;" d="M72 525C72.728 528.351 73.597 529.412 77 530C76.4125 526.597 75.3506 525.728 72 525M220 525C221.506 525.683 222.315 525.826 224 526C222.494 525.317 221.685 525.174 220 525M326 525C327.506 525.683 328.315 525.826 330 526C328.494 525.317 327.685 525.174 326 525M97 526C94.5819 526.722 92.5284 526.948 90 527C91.6792 527.967 98.3123 529.179 97 526M161 536L161 540C165.438 540 169.662 540.033 174 539L172 534C175.708 533.152 179.181 532.174 183 532L183 536C188.024 534.804 192.901 535.284 198 534.91C207.122 534.241 215.739 533 225 533C222.387 531.902 219.835 532.007 217 532C217.322 529.655 217.25 528.493 219 527C214.329 525.343 208.852 528.449 204 528.924C195.519 529.755 186.348 529.935 178 531.326C172.249 532.284 166.693 534.695 161 536z"/>

<path style="fill:#999999;stroke:none;" d="M465 526L465 531C465.83 528.969 465.83 528.03 465 526M240 529C242.052 529.874 243.747 529.953 246 530C243.948 529.126 242.253 529.047 240 529M234 530C235.248 530.685 235.548 530.749 237 531C235.752 530.315 235.452 530.251 234 530M227 531C229.052 531.874 230.747 531.953 233 532C230.948 531.126 229.253 531.047 227 531M460 531C461.248 531.685 461.548 531.749 463 532C461.752 531.315 461.452 531.251 460 531z"/>

<path style="fill:#999999;stroke:none;" d="M54 533L54 538L60 538C58.9217 534.661 57.3379 533.897 54 533z"/>

<path style="fill:#999999;stroke:none;" d="M80 537C81.0613 543.364 87.6079 542.955 93 543C91.8606 541.985 91.3884 541.691 90 541L90 539C95.4799 537.931 101.397 539 107 539C99.3407 535.786 88.2476 537 80 537M180.667 537.333C180.222 537.778 181.278 537.722 181.333 537.667C181.778 537.222 180.722 537.278 180.667 537.333z"/>

<path style="fill:#999999;stroke:none;" d="M175 538C176.769 538.779 178.036 538.912 180 539C178.231 538.221 176.964 538.088 175 538M313 541C317.217 542.769 322.459 542 327 542C325.416 539.36 324.447 540.211 325 538C320.857 539.471 317.462 540.893 313 541M231 540C235.307 541.545 241.332 540 246 540C241.289 538.023 235.922 539.378 231 540z"/>

<path style="fill:#999999;stroke:none;" d="M71 540C72.6427 544.508 75.381 545.58 80 546C78.5738 541.712 75.2437 540.663 71 540M221 540C219.777 541.195 219.58 541.316 218 542C221.218 543.312 224.049 542.767 227 541L221 540M330 540C332.213 541.393 333.391 541.374 336 541C334.007 540.288 332.131 540.175 330 540z"/>

<path style="fill:#999999;stroke:none;" d="M136 549C136.773 553.594 141.473 557.928 146.215 554.685C150.375 551.84 151.782 546.694 152 542C145.554 543.831 143.356 548.918 136 549M96 543C100.724 544.982 106.91 544 112 544C107.276 542.018 101.09 543 96 543z"/>



<path style="fill:#999999;stroke:none;" d="M85 554L85 558C97.2203 559.544 109.676 559 122 559C121.064 553.39 116.877 554.002 112 554L85 554M173 555C175.239 555.811 176.647 555.529 179 555C176.837 554.324 175.268 554.613 173 555M169 555C170.248 555.685 170.548 555.749 172 556C170.752 555.315 170.452 555.251 169 555z"/>

<path style="fill:#999999;stroke:none;" d="M295 557C297.34 557.566 299.571 557.176 302 557C299.415 555.398 297.867 556.024 295 557M151 568C154.549 567.506 156.906 566.989 159 564C155.663 563.247 155.726 561.159 156 558L160 559C160 557.203 159.986 557.479 159 556C154.226 558.441 151.935 562.819 151 568z"/>

<path style="fill:#999999;stroke:none;" d="M457 557C459.613 558.098 462.165 557.993 465 558C462.387 556.902 459.836 557.007 457 557z"/>

<path style="fill:#999999;stroke:none;" d="M179 563C181.052 563.874 182.747 563.953 185 564L185 569C195.939 565.881 206.715 564.574 218 566C216.777 564.805 216.58 564.684 215 564C215.955 562.233 216.566 561.393 218 560C213.194 558.522 206.924 560.643 202 561.41C194.628 562.558 186.463 562.846 179 563z"/>

<path style="fill:#999999;stroke:none;" d="M160 560L160 564C160.71 562.24 160.71 561.76 160 560M249 561C250.248 561.685 250.548 561.749 252 562C250.752 561.315 250.452 561.251 249 561M219 565L224 573L220 573C212.828 578.871 199.276 572.317 195 582C202.482 582 211.911 583.949 219 582L213 580L213 578C223.513 574.161 234.881 573 246 573L245 570C246.797 570 246.521 569.986 248 569C247.232 567.686 247.314 567.768 246 567C246.97 565.4 247.72 564.337 249 563C244.89 561.324 241.205 563.312 237 563.816C231.064 564.526 224.976 564.378 219 565M170 565C172.163 565.676 173.732 565.387 176 565C173.837 564.324 172.268 564.613 170 565z"/>

<path style="fill:#999999;stroke:none;" d="M50 566L50 570C53.5735 569.958 55.84 569.996 58 567L50 566M167 566C167.3 569.864 168.089 571.348 172 572C170.007 570.008 169.272 568.811 169 566L167 566z"/>

<path style="fill:#999999;stroke:none;" d="M90 569C91.9291 573.393 94.2933 574.452 99 574C97.542 572.919 96.7519 572.564 95 572C99.6872 568.667 103.549 569.887 109 570C106.061 571.63 103.294 572.352 100 573C105.006 574.795 120.206 573.405 122 568L90 569z"/>

<path style="fill:#999999;stroke:none;" d="M5 570C3.64621 574.401 1.09249 578.618 0.259259 583.17C-1.74457 594.116 0 606.87 0 618C6.74898 613.659 5.09577 603.155 6 596C11.5662 596 19.9923 597.54 24.7215 593.991C29.4046 590.476 28.8443 580.6 23.5177 577.858C20.0571 576.077 14.7818 577 11 577L11 570L5 570M174 571C176.205 572.841 178.278 574.081 181 575C178.188 576.366 176.928 576.835 177 580L168 581C168.263 584.41 168.679 585.901 172 587C171.395 580.172 179.643 579.721 185 579L185 584L192 583L192 579C185.674 578.793 184.147 576.081 184 570C180.578 570.028 177.363 570.375 174 571M297 570C297.98 571.783 297.908 571.594 300 572C298.861 570.985 298.388 570.691 297 570z"/>

<path style="fill:#999999;stroke:none;" d="M161 572L161 576C163.492 575.03 164.146 574.525 165 572L161 572z"/>

<path style="fill:#999999;stroke:none;" d="M105 582C108.16 582.972 111.667 582.068 115 582L115 586C108.89 586.279 104.354 588.977 99 585L103 584C101.154 583.532 99.9314 583.699 98 584C99.1863 589.436 103.103 589.37 108 588.255C115.64 586.515 123.538 585.366 131 583C125.516 576.854 112.354 580.635 105 582z"/>

<path style="fill:#999999;stroke:none;" d="M48 598C49.314 599.618 49.8772 599.693 52 600C50.3459 595.767 49.5338 592.475 48.8565 588.001C48.106 583.043 40.858 577.382 37.0324 583.318C32.9504 589.652 41.4147 599.789 48 598M49 581L50 585C50.683 583.494 50.8259 582.685 51 581L49 581M222.667 581.333C222.222 581.778 223.278 581.722 223.333 581.667C223.778 581.222 222.722 581.278 222.667 581.333z"/>

<path style="fill:#999999;stroke:none;" d="M283 583C286.716 583.893 291.113 583.003 295 583C291.147 581.383 286.993 582.049 283 583z"/>

<path style="fill:#999999;stroke:none;" d="M54 583C56.4144 587.485 60.1963 587.897 65 588C63.2973 583.033 58.6744 583.042 54 583M237 589C239.613 590.098 242.165 589.993 245 590L245 594C252.03 593.679 259.011 591.431 266 590.428C271.001 589.71 276.03 590.004 281 589C279.369 587.634 277.962 586.858 276 586C278.095 584.957 279.699 584.397 282 584C277.404 582.089 271.803 583.913 267 584.575C257.159 585.93 246.887 588.796 237 589z"/>

<path style="fill:#999999;stroke:none;" d="M184 585L185 586L184 585M178 586C178.745 587.823 178.954 589.023 179 591C177.521 590.014 177.797 590 176 590C176.902 591.922 177.076 591.999 179 593C176.149 595.693 173.859 595.955 170 596C171.072 601.252 174.632 602.391 178 606C176.521 605.014 176.797 605 175 605L179 611C176.498 610.598 174.511 610.641 172 611L173 617C176.706 617.468 184.396 619.457 183.922 613.15C183.728 610.562 181.975 608.739 182.564 605.985C183.322 602.443 185.509 599.694 186 596C182.641 600.594 176.467 604.81 174 597C177.44 596.7 180.643 595.768 184 595L184 586L178 586M282 588C284.331 588.984 286.457 588.981 289 589C286.668 588.015 284.543 588.019 282 588z"/>

<path style="fill:#999999;stroke:none;" d="M134 591C136.756 592.077 139.107 591.532 142 591C139.354 590.185 136.774 590.787 134 591M219 592C223.45 593.737 229.38 591.861 234 591C229.764 589.697 223.246 590.745 219 592z"/>

<path style="fill:#999999;stroke:none;" d="M464.333 590.667C464.278 590.722 464.222 591.778 464.667 591.333C464.722 591.278 464.778 590.222 464.333 590.667z"/>

<path style="fill:#999999;stroke:none;" d="M129 592C130.506 592.683 131.315 592.826 133 593C131.494 592.317 130.685 592.174 129 592M193 598L222 599C219.767 597.991 217.396 597.595 215 597C215.568 595.357 215.883 594.244 217 593C211.557 590.78 195.878 592.511 193 598M123 593C125.052 593.874 126.747 593.953 129 594C126.948 593.126 125.253 593.047 123 593M143 593C141.777 594.195 141.58 594.316 140 595C142.139 595.952 143.976 595.577 143 593M119 594C120.248 594.685 120.548 594.749 122 595C120.752 594.315 120.452 594.251 119 594z"/>

<path style="fill:#999999;stroke:none;" d="M113.667 595.333C113.222 595.778 114.278 595.722 114.333 595.667C114.778 595.222 113.722 595.278 113.667 595.333z"/>

<path style="fill:#999999;stroke:none;" d="M232 596C234.852 597.188 237.06 596.864 240 596C237.384 595.371 234.717 595.89 232 596M241 595L242 596L241 595M110.667 596.333C110.222 596.778 111.278 596.722 111.333 596.667C111.778 596.222 110.722 596.278 110.667 596.333M136 596C137.506 596.683 138.315 596.826 140 597C138.494 596.317 137.685 596.174 136 596M121 601C116.994 599.567 112.319 601.449 108 601L110 597C107.387 598.529 105.94 601.661 110.113 602.643C113.494 603.438 117.741 601.843 121 601M129 597C130.506 597.683 131.315 597.826 133 598C131.494 597.317 130.685 597.174 129 597M228 597C229.506 597.683 230.315 597.826 232 598C230.494 597.317 229.685 597.174 228 597M123 598C125.052 598.874 126.747 598.953 129 599C126.948 598.126 125.253 598.047 123 598M141 598C141 599.797 141.014 599.521 142 601C138.951 601.454 136.092 602.051 133 602C133.086 604.409 132.055 604.807 130 606C135.512 607.323 141.451 604.484 147 604C145.06 610.16 137.721 610.878 132 611C133.301 612.006 137.137 612.665 135 614C135.65 615.3 135.147 615 137 615C135.368 616.926 135.034 617.511 135 620C130.918 618.945 128.77 616.786 127 613L118 616C120.817 618.797 122.685 621.215 124 625C131.821 621.371 140.127 619.49 148 616L149 620C149.834 616.142 146.703 612.437 145 609C150.588 605.335 145.705 599.648 141 598M223 598C224.769 598.779 226.036 598.912 228 599C226.231 598.221 224.964 598.088 223 598M279 598C281.331 598.984 283.457 598.981 286 599C283.668 598.015 281.543 598.019 279 598z"/>

<path style="fill:#999999;stroke:none;" d="M121.667 599.333C121.222 599.778 122.278 599.722 122.333 599.667C122.778 599.222 121.722 599.278 121.667 599.333M248 603C252.137 604.736 256.688 603.8 261 603C261.386 604.723 261.75 605.539 261 607C265.566 608.404 270.422 606.066 275 605.325C279.399 604.613 283.687 605.275 288 604C285.705 603.438 283.3 603.869 280.999 603.123C277.835 602.097 275.442 600.275 272 600.059C264.098 599.563 255.955 602.658 248 603z"/>

<path style="fill:#999999;stroke:none;" d="M290.667 603.333C290.222 603.778 291.278 603.722 291.333 603.667C291.778 603.222 290.722 603.278 290.667 603.333z"/>

<path style="fill:#999999;stroke:none;" d="M243 604C244.506 604.683 245.315 604.826 247 605C245.494 604.317 244.685 604.174 243 604z"/>

<path style="fill:#999999;stroke:none;" d="M239 605C240.248 605.685 240.548 605.749 242 606C240.752 605.315 240.452 605.251 239 605M62 633C62.4057 635.092 62.2167 635.02 64 636C61.4131 637.077 59.5918 637.7 58 640L73 640C72.7893 637.261 72.6975 636.578 70 636C70 637.797 70.0143 637.521 71 639L68 638C68.9857 636.521 69 636.797 69 635L63 635C65.1059 634.356 66.7951 634.094 69 634C64.6313 632.115 59.4909 632.784 55.0633 630.969C51.9924 629.711 51.4165 627.824 54 626C51.9479 625.126 50.2528 625.047 48 625C48.0564 619.892 49.2534 616.294 52 612L48 611C47.5974 608.595 45.4909 604.544 43.0378 608.337C41.9528 610.015 42.3396 612.148 42.5849 613.996C43.2323 618.875 45.5492 629.503 50.0586 631.972C53.4057 633.805 58.3135 633 62 633M233 606C235.052 606.874 236.747 606.953 239 607C236.948 606.126 235.253 606.047 233 606M126 607C127.248 607.685 127.548 607.749 129 608C127.752 607.315 127.452 607.251 126 607M229 607C230.506 607.683 231.315 607.826 233 608C231.494 607.317 230.685 607.174 229 607M122 608C123.248 608.685 123.548 608.749 125 609C123.752 608.315 123.452 608.251 122 608M222 608C224.332 608.984 226.457 608.981 229 609C226.668 608.015 224.543 608.019 222 608M255 608C256.248 608.685 256.548 608.749 258 609C256.752 608.315 256.452 608.251 255 608z"/>
<path style="fill:#999999;stroke:none;" d="M119 609L120 610L119 609M195 611C196.078 612.848 195.949 612.966 195 615L223 616C221.307 614.938 219.96 614.48 218 614C218.545 612.365 218.365 612.545 220 612C218.752 611.315 218.452 611.251 217 611C218.801 610.438 220.122 610.176 222 610C214.295 606.767 203.116 610.359 195 611M253.667 609.333C253.222 609.778 254.278 609.722 254.333 609.667C254.778 609.222 253.722 609.278 253.667 609.333M117.667 610.333C117.222 610.778 118.278 610.722 118.333 610.667C118.778 610.222 117.722 610.278 117.667 610.333M246 610C247.248 610.685 247.548 610.749 249 611C247.752 610.315 247.452 610.251 246 610M114 611C114.776 613.132 115.13 613.771 117 615C116.224 612.868 115.87 612.229 114 611M444 611C444.849 612.991 445.267 613.778 447 615C446.66 617.018 446.677 617.968 447 620L437 619C444.223 623.327 455.123 621.463 463 620L463 612C456.124 612.142 450.793 612.15 444 611z"/>

<path style="fill:#999999;stroke:none;" d="M237 612C239.052 612.874 240.747 612.953 243 613C240.948 612.126 239.253 612.047 237 612z"/>

<path style="fill:#999999;stroke:none;" d="M233 613C234.506 613.683 235.315 613.826 237 614C235.494 613.317 234.685 613.174 233 613M226 614C227.506 614.683 228.315 614.826 230 615C228.494 614.317 227.685 614.174 226 614z"/>

<path style="fill:#999999;stroke:none;" d="M255 618C256.248 618.685 256.548 618.749 258 619C256.752 618.315 256.452 618.251 255 618M250.667 619.333C250.222 619.778 251.278 619.722 251.333 619.667C251.778 619.222 250.722 619.278 250.667 619.333z"/>
<path style="fill:#999999;stroke:none;" d="M24.0941 620.742C14.5352 624.729 22.4169 637.591 30.7863 634.091C39.4894 630.451 33.312 616.897 24.0941 620.742M247 620C248.248 620.685 248.548 620.749 250 621C248.752 620.315 248.452 620.251 247 620M227 624L237 623C233.614 620.797 229.495 620.535 227 624M240 621C241.248 621.685 241.548 621.749 243 622C241.752 621.315 241.452 621.251 240 621M127 629C129.746 631.684 132.72 633.871 135 637C132.636 637.482 132.482 637.636 132 640L136 640C137.842 633.501 143.988 632.235 150 631C149.936 627.922 149.562 625.025 149 622L127 629M265 622C266.248 622.685 266.548 622.749 268 623C266.752 622.315 266.452 622.251 265 622M262 623C263.248 623.685 263.548 623.749 265 624C263.752 623.315 263.452 623.251 262 623M429.667 623.333C429.222 623.778 430.278 623.722 430.333 623.667C430.778 623.222 429.722 623.278 429.667 623.333M224 624C225.248 624.685 225.548 624.749 227 625C225.752 624.315 225.452 624.251 224 624M222 631C223.488 634.135 224.542 635.409 228 636L224 639C228.975 640.429 233.949 639.177 239 638.421C249.733 636.815 260.121 632.889 271 632C267.792 628.673 265.257 628.33 261 630L262 633C260.483 632.043 259.661 631.613 258 631C259.872 628.637 260.307 626.739 257 626L259 625C255.376 623.992 251.653 626.023 248 626.739C239.385 628.427 230.815 630.622 222 631M422 632C431.991 633.698 440.698 636.004 451 636C453.878 635.999 458.898 636.811 460.972 634.258C462.466 632.419 461.992 629.194 462 627C452.288 630.078 443.613 625.989 434 624C434.077 626.645 433.997 628.266 436 630L435 627C437.502 626.598 439.489 626.641 442 627C437.971 632.078 434.301 633.425 428 633C428.255 629.943 428.255 627.057 428 624C423.925 625.281 423.145 628.114 422 632z"/>
<path style="fill:#999999;stroke:none;" d="M57 626C60.0917 627.334 63.6466 627.576 67 628L65 625C62.3142 625.501 59.7301 625.883 57 626M216 625C218.332 625.984 220.457 625.981 223 626C220.668 625.015 218.543 625.019 216 625M462 625L463 626L462 625z"/>

<path style="fill:#999999;stroke:none;" d="M194 628L194 630C201.747 631.844 211.023 631.835 219 632C217.393 629.935 216.532 628.548 216 626C208.915 626.059 200.884 626.361 194 628M0 627L0 640L5 640C4.78435 635.281 4.10701 629.811 0 627M175 627L175 631C177.724 630.818 179.583 630.265 182 629C179.689 627.607 177.691 627.235 175 627M284 629C286.931 629.902 289.921 629.089 293 629.015C299.326 628.862 305.672 629 312 629C304.408 625.814 291.958 627.522 284 629M68 628L69 629L68 628M70 629C71.2319 630.701 73.243 632.264 72 634C78.4971 636.917 86.9199 638.104 94 639C92.994 637.269 92.4535 635.947 92 634L107 634C104.483 631.847 102.254 631.355 99 631C91.6043 636.603 78.1777 630.385 70 629z"/>

<path style="fill:#999999;stroke:none;" d="M313 629L312 634C326.336 636.435 341.368 637.845 356 639C351.713 628.521 338.488 631.564 329 630.911C323.614 630.54 318.421 629.112 313 629M272 630C274.89 631.213 277.874 630.998 281 631C278.11 629.787 275.126 630.002 272 630z"/>

<path style="fill:#999999;stroke:none;" d="M262 639C267.222 641.191 274.368 640 280 640C279.528 638.584 279.186 638.186 278 637C282.321 636.659 286.659 635.354 291 635.455C295.495 635.56 299.661 637.109 304 638C302.861 636.985 302.389 636.691 301 636C304.041 635.1 306.831 635.008 310 635C306.44 633.507 302.533 634.174 298.715 634.14C286.073 634.025 274.456 638.735 262 639z"/>

<path style="fill:#999999;stroke:none;" d="M108 634L112 639L100 639C104.471 640.876 110.183 640 115 640C112.998 637.13 111.258 635.339 108 634z"/>
<path style="fill:#999999;stroke:none;" d="M472 634C473.336 637.899 476.092 638.596 480 639L480 634L472 634M462 635L462 638C462.696 636.446 462.696 636.554 462 635M143 639C145.613 640.098 148.165 639.993 151 640L151 636C148.196 636.766 145.635 637.77 143 639M359 639C361.332 639.984 363.457 639.981 366 640C363.668 639.015 361.543 639.019 359 639M461 639L462 640L461 639z"/>
</svg>
