<svg xmlns="http://www.w3.org/2000/svg" viewBox="0 0 400 400">
        <path fill="#a5807c" d="M0 0h400v400H0z" />
        <g fill-opacity=".5">
          <path fill="#000016" d="M424.2-24.2l-50 139-362.5-103z" />
          <path fill="#ffffe8" d="M-24.2 397.7l36-422 103 448.5z" />
          <path fill="#3e2329" d="M183.6 408.6l167.2-125-279.7-14z" />
          <path fill="#dbdfda" d="M414.8 421L257 424.3 424.2 18z" />
          <path fill="#ffa19a" d="M88.3 114.8l246.9 107.9L132 294.5z" />
          <path fill="#00142e" d="M97.7 77.3l326.5-64L33.6-24.2z" />
          <path fill="#fff" d="M-22.7 346l34.4 78.2 275-28.1z" />
          <path fill="#ffca9f" d="M10.2 400.8L-4-24.2l93.7 84.4z" />
          <path fill="#a15f66" d="M318 272.7l79.7-203.2-225-6.2z" />
          <path fill="#2d2419" d="M133.6 358.6L52.3 210.2l190.7 175z" />
        </g>
      </svg>