<svg id="Layer_1" data-name="Layer 1" xmlns="http://www.w3.org/2000/svg" viewBox="0 0 965.33 965.33"><defs><style>.cls-1{fill:#ffed00;}.cls-2{fill:#1d1d1b;}</style></defs><circle class="cls-1" cx="482.67" cy="482.67" r="478.06"/><path class="cls-2" d="M500,982.67A482.79,482.79,0,0,1,312.12,55.27,482.79,482.79,0,0,1,687.88,944.73,479.67,479.67,0,0,1,500,982.67Zm0-956.12C238.94,26.55,26.55,238.94,26.55,500S238.94,973.45,500,973.45,973.45,761.06,973.45,500,761.06,26.55,500,26.55Z" transform="translate(-17.33 -17.33)"/><path class="cls-2" d="M500,866.08a299.77,299.77,0,0,1-300-300h25.52c0,151.36,123.13,274.5,274.49,274.5s274.49-123.14,274.49-274.5H800a299.77,299.77,0,0,1-300,300Z" transform="translate(-17.33 -17.33)"/><path class="cls-2" d="M810.57,579.88a12.72,12.72,0,0,1-6.11-1.57c-11.72-6.4-23.85-6.36-40.84-4.12a12.75,12.75,0,1,1-3.33-25.29c17-2.24,36.73-3.73,56.4,7a12.76,12.76,0,0,1-6.12,24Z" transform="translate(-17.33 -17.33)"/><path class="cls-2" d="M188.58,579.88a12.76,12.76,0,0,1-6.13-24c19.67-10.75,39.43-9.26,56.4-7a12.75,12.75,0,1,1-3.33,25.29c-17-2.24-29.12-2.28-40.84,4.12A12.71,12.71,0,0,1,188.58,579.88Z" transform="translate(-17.33 -17.33)"/><ellipse class="cls-2" cx="341.73" cy="328.17" rx="51.87" ry="91.09"/><ellipse class="cls-2" cx="621.12" cy="328.17" rx="51.87" ry="91.09"/><path class="cls-2" d="M804.17,578.24a12.52,12.52,0,0,1-6-1.54c-11.53-6.3-23.46-6.26-40.17-4.06a12.54,12.54,0,1,1-3.27-24.87c16.69-2.2,36.12-3.66,55.47,6.91a12.55,12.55,0,0,1-6,23.56Z" transform="translate(-17.33 -17.33)"/><path class="cls-2" d="M192.51,578.24a12.55,12.55,0,0,1-6-23.56c19.35-10.57,38.78-9.11,55.47-6.91a12.54,12.54,0,1,1-3.28,24.87c-16.71-2.2-28.64-2.24-40.16,4.06A12.52,12.52,0,0,1,192.51,578.24Z" transform="translate(-17.33 -17.33)"/></svg>