     <svg xmlns="http://www.w3.org/2000/svg" viewBox="0 0 400 400">
        <path fill="#a5807c" d="M0 0h400v400H0z" />
        <g fill-opacity=".5">
          <path fill="#000018" d="M371 122.7l53.2-147L16.4 10.3z" />
          <path fill="#ffffe8" d="M11.7-24.2l103.1 448.4-139-32.8z" />
          <path fill="#2c1119" d="M221 396l101.7-120.2L71 307z" />
          <path fill="#d9ddd8" d="M263.3 408.6l161-7.8V16.4z" />
          <path fill="#ff9c8d" d="M-4-24.2L132 268l190.7-7.8z" />
          <path fill="#00152d" d="M424.2 11.7L94.5 80.5 38.3-24.2z" />
          <path fill="#fdfbff" d="M280.5 396L-2.3 346l1.5 78.2z" />
          <path fill="#ad6766" d="M49.2 61.7L397.7 68 321 244.5z" />
          <path fill="#272016" d="M54 218l96.8 162.5 82.8-3.2z" />
          <path fill="#ffe4b3" d="M-24.2 22.7l68.7-47L68 268z" />
          <path fill="#fd9c77" d="M57 185.2l-81.2 64 162.5 175z" />
          <path fill="#6f422b" d="M57 180.5l23.5 104.7L107 55.5z" />
          <path fill="#8d5a62" d="M191.4 350.8l232.8-36L155.5 254z" />
          <path fill="#ffe6b2" d="M408.6 302.3l4.7-254.6-93.8 231.2z" />
          <path fill="#1c1b21" d="M385.2 138.3l-65.7 56.2-18.7-40.6z" />
          <path fill="#ffb592" d="M82 174.2l123.5-79.7-73.5-39z" />
          <path fill="#08213f" d="M149.2 38.3L393-24.2l31.2 103.1z" />
          <path fill="#ff9ea1" d="M285.2 163.3l-9.4 117.2-181.3-61z" />
          <path fill="#402a30" d="M183.6 110.2l92.2 42.1-73.5 22z" />
          <path fill="#fff" d="M-24.2 264.8L46 424.2l73.4-1.5z" />
          <path fill="#8b91ba" d="M364.8 285.2l-139 101.5 198.4 29.7z" />
          <path fill="#081517" d="M205.5 380.5l90.6-92.2-43.8 82.8z" />
          <path fill="#ffe9c1" d="M47.7-2.3L13.3 216.4-24.2-7z" />
          <path fill="#b16463" d="M260.2 329L107 296l118.8-71.8z" />
          <path fill="#1e2b44" d="M183.6 74.2L2.3-24.2l422 59.4z" />
          <path fill="#eb7e6c" d="M38.3 38.3l23.4 162.5L88.3 47.7z" />
          <path fill="#432f1d" d="M68-10.2l61 57.9-29.8 67.1z" />
          <path fill="#c48a85" d="M88.3 297.7l76.5 93.7-73.4-17.2z" />
          <path fill="#a86d73" d="M325.8 63.3l59.4 79.7L168 72.7z" />
          <path fill="#cadafd" d="M282 383.6l-95.3 40.6-121.9-40.6z" />
          <path fill="#ef9c96" d="M144.5 285.2L279 196 93 132z" />
          <path fill="#5c423a" d="M261.7 280.5l-120.3 23.4 42.2-39z" />
          <path fill="#912a30" d="M68 72.7L44.5 85.2l25 34.3z" />
          <path fill="#df8657" d="M-7 196l73.4 9.5-90.6 34.3z" />
          <path fill="#212120" d="M135.2 358.6L221 382 86.7 277.3z" />
          <path fill="#fff" d="M86.7 424.2l-111-189v79.6z" />
          <path fill="#986471" d="M330.5 294.5l-50-15.6 21.8-159.4z" />
          <path fill="#271816" d="M308.6 161.7l64-4.7 1.6-21.8z" />
          <path fill="#e98389" d="M193 325.8L179 293l56.2 17.2z" />
          <path fill="#b46953" d="M82 150.8l4.7 107.8 61 46.9z" />
          <path fill="#f9bba3" d="M102.3 311.7l-18.7 65.6-107.8-128z" />
          <path fill="#f7e1bd" d="M383.6 93l-9.4 68.7 50-104.7z" />
          <path fill="#9e95a0" d="M200.8 424.2l223.4-101.5-93.7-45.4z" />
          <path fill="#d78f98" d="M325.8 136.7L174.2 89.8l76.6 48.5z" />
          <path fill="#413736" d="M275.8 343l31.2-51.6-54.7-9.4z" />
          <path fill="#916257" d="M150.8 114.8l43.7 54.7 23.5-59.3z" />
          <path fill="#ffb3a7" d="M275.8 260.2l-1.6-97-43.7 40.7z" />
          <path fill="#fcddb6" d="M24.2 204L-24.2 49.1l93.7 111z" />
          <path fill="#f8a78e" d="M175.8 74.2l-46.9-14-4.7 184.3z" />
          <path fill="#efd2b2" d="M329 282l95.2-161-68.7 48.5z" />
          <path fill="#324865" d="M52.3-24.2l-6.2 54.7L111.7-7z" />
          <path fill="#b8807a" d="M166.4 382H99.2l1.6-62.5z" />
          <path fill="#25191d" d="M252.3 150.8l-15.6-20.3h-37.5z" />
          <path fill="#1f283f" d="M60.2-8.6L411.7 79 396.1-24.2z" />
          <path fill="#523c44" d="M302.3 152.3l47 29.7-57.9 4.7z" />
          <path fill="#b1b6d3" d="M157 416.4l162.5-17.2L182 377.3z" />
          <path fill="#c28291" d="M180.5 158.6l50 20.3-23.5 95.3z" />
          <path fill="#2c2a26" d="M166.4 299.2l12.5 81.3-75-68.8z" />
          <path fill="#b47e72" d="M225.8 146l-56.3 8-26.5-39.2z" />
          <path fill="#eda985" d="M80.5 279H-24.2L57 179z" />
          <path fill="#54392a" d="M75.8 160.2l3.1 81.2L63.3 193z" />
          <path fill="#faf2fc" d="M36.7 357l7.8 67.2 109.4-25z" />
          <path fill="#ff9b8d" d="M33.6 52.3l11 79.7 26.5 9.4z" />
          <path fill="#9b6667" d="M368 138.3L200.8 71l187.5 12.5z" />
          <path fill="#ae6f7e" d="M241.4 68l39 98.4 68.8-23.4z" />
          <path fill="#212c44" d="M393 52.3L47.7-24.2 168 69.5z" />
          <path fill="#ffa896" d="M39.8 75.8L69.5 32l7.8 36z" />
          <path fill="#a9727b" d="M296 297.7l-9.3-118.8 57.8 7.8z" />
          <path fill="#d98876" d="M146 289.8L82 179l20.3-78.1z" />
          <path fill="#9b7973" d="M343 177.3l-28.2-17.1 43.8 1.5z" />
          <path fill="#714750" d="M222.7 180.5l51.5-31.3-96.9 1.6z" />
          <path fill="#cdb8c3" d="M39.8 394.5l-12.5 25L-2.3 332z" />
          <path fill="#9f5165" d="M216.4 285.2l61 21.8-84.4 57.8z" />
          <path fill="#6d4e42" d="M135.2 54l-32.9 3L82 132z" />
          <path fill="#403a43" d="M172.7 336.7l75 40.6-45.4 9.4z" />
          <path fill="#5e4433" d="M66.4 218l62.5 89-29.7 3.2z" />
          <path fill="#c44252" d="M58.6 35.2L43 41.4V68z" />
          <path fill="#d1d5ed" d="M229 413.3l35.8-56.3-14 45.3z" />
          <path fill="#8b828d" d="M257 358.6l59.4-68.8 21.9 47z" />
          <path fill="#271b1b" d="M221 150.8l-21.8 9.4 37.5-1.6z" />
          <path fill="#f5daba" d="M49.2 10.2l-50 184.3-4.7-218.7z" />
          <path fill="#9f6c5f" d="M110.2 300.8l28 6.2-9.3-68.7z" />
          <path fill="#cf9887" d="M97.7 374.2L63.3 246.1l51.5 87.5z" />
          <path fill="#b39a95" d="M318 275.8l81.2 82.8v-50z" />
          <path fill="#f7a291" d="M100.8 197.7L127.3 68 168 204z" />
          <path fill="#fff" d="M47.7 391.4l-72-104.7 104.8 86z" />
          <path fill="#a97774" d="M122.7 352.3l-9.4 29.7-36-15.6z" />
          <path fill="#d59182" d="M238.3 107l-100 9.4 37.5-29.7z" />
          <path fill="#36271f" d="M104 58.6L55.4 21 107 3.9z" />
          <path fill="#282124" d="M235.2 372.7l-67.2 3-42.2-29.6z" />
          <path fill="#9b6672" d="M275.8 118l61-53.2-87.6-1.5z" />
          <path fill="#be6552" d="M63.3 27.3l21.9 42.2V47.7z" />
          <path fill="#d5d9f2" d="M143 391.4l36 32.8 4.6-46.9z" />
          <path fill="#232021" d="M241.4 338.3l-3.1 37.5 50-59.4z" />
          <path fill="#e8cbae" d="M319.5 279l92.2-209.5 12.5 240.7z" />
          <path fill="#d3a785" d="M64.8 202.3l-20.3 18.8 15.7-67.2z" />
          <path fill="#e7d3b5" d="M389.8 77.3l34.4 4.7-48.4 59.4z" />
          <path d="M321 177.3l-6.2-7.8h15.7z" />
          <path fill="#f5baa1" d="M89.8 375.8L57 236.8l-43.7 73.4z" />
          <path fill="#f5d8b6" d="M22.7-22.7l28 220.4-75-6.3z" />
          <path fill="#fff" d="M25.8 424.2L-7 339.8l-6.3 40.7z" />
          <path fill="#9d99b3" d="M408.6 316.4l-7.8 56.3-189 14z" />
          <path fill="#805d57" d="M321 152.3l51.7-12.5 3-23.4z" />
          <path fill="#805244" d="M64.8 177.3l23.5 6.3-7.8-59.4z" />
          <path fill="#d79c94" d="M166.4 385.2l-45.3-1.6 14-23.4z" />
          <path fill="#d18286" d="M163.3 252.3l61-32.8 28 54.7z" />
          <path fill="#b4727d" d="M333.6 258.6l-46.9-75-14 93.7z" />
          <path fill="#f2a881" d="M68 110.2l15.6 6.2V60.2z" />
          <path fill="#9e6770" d="M219.5 182l34.4-7.8-76.6-25z" />
          <path fill="#fffbff" d="M224.2 424.2L207 408.6l25-23.4z" />
          <path fill="#bbbcda" d="M408.6 322.7L382 408.6l42.2-9.4z" />
          <path fill="#8a5d51" d="M107 279l-23.4-34.5 40.6 15.7z" />
          <path fill="#ffa497" d="M230.5 252.3l34.3-92.1 3.2 112.5z" />
          <path fill="#7c575c" d="M204 364.8l57.7-39-73.4-6.3z" />
          <path fill="#3f4858" d="M50.8 29l-3.1-53.2 17.1 48.4z" />
          <path fill="#4c3938" d="M289.8 277.3L254 289.8l32.8 32.9z" />
          <path fill="#7a4f49" d="M164.8 108.6l25 29.7 45.4-12.5z" />
          <path fill="#503634" d="M218 289.8l29.7-3-14.1-11z" />
          <path fill="#ae514d" d="M63.3 119.5l-9.4-46.8L75.8 71z" />
          <path fill="#b8596a" d="M255.5 296l-42.2 26.7-12.5-37.5z" />
          <path fill="#b17b75" d="M171 307l45.4 40.7-32.8-62.5z" />
          <path fill="#aa7663" d="M2.3 264.8l12.5 26.6-17.1-20.3z" />
          <path fill="#c37f5c" d="M22.7 207l-47 9.4 18.8-25z" />
          <path fill="#362725" d="M333.6 155.5l37.5 4.7-6.3-18.8z" />
          <path fill="#7b5860" d="M291.4 189.8h54.7L302.3 168z" />
          <path fill="#e7b1a2" d="M91.4 302.3l4.7 78.2-59.4-43.8z" />
          <path fill="#625149" d="M296 310.2l-26.5 4.6 56.3-51.5z" />
          <path fill="#222a3f" d="M186.7-7l207.8-17.2 20.3 107.8z" />
          <path fill="#6b4b55" d="M152.3 382l23.5-9.3-12.5 10.9z" />
          <path fill="#ea9491" d="M104 191.4l45.2 87.5 92.2-84.4z" />
          <path fill="#a3705a" d="M121 91.4l8-36L89.7 118z" />
          <path fill="#b77c69" d="M160.2 294.5l-51.6 4.7 65.6-34.4z" />
          <path fill="#3d2c2a" d="M347.7 186.7l-4.7-14-23.5-1.6z" />
          <path fill="#b97c68" d="M149.2 122.7l48.5-11-39.1-6.2z" />
          <path fill="#c8787a" d="M252.3 282l29.7-6.2-48.4-15.6z" />
          <path fill="#867c85" d="M236.7 377.3l-3.1 36 11-29.7z" />
          <path fill="#8d5f5c" d="M377.3 147.7l-15.6-78.2-70.3-9.3z" />
          <path fill="#aa9285" d="M325.8 322.7l46.9-28.2-56.3-17.2z" />
          <path fill="#a1abc6" d="M194.5 377.3l-4.7 28.2 17.2-17.2z" />
          <path fill="#303546" d="M127.3 54L97.7-.9 169.5 68z" />
          <path fill="#e49f79" d="M-24.2 208.6L60.2 196l-31.3 40.6z" />
          <path fill="#f6b28d" d="M54 261.7l-73.5-71.9 34.3 111z" />
          <path fill="#aa6b6a" d="M289.8 169.5l-10.9-25-29.7 12.5z" />
          <path fill="#594643" d="M193 344.5l-31.3-9.3L168 296z" />
          <path fill="#e6ceb1" d="M325.8 271l36-107.7 62.4 37.5z" />
          <path fill="#e1968a" d="M185.2 310.2l31.2 7.8-29.7-20.3z" />
          <path fill="#e6dfe8" d="M89.8 383.6l-40.6 40.6 114-37.5z" />
          <path fill="#fff" d="M50.8 361.7l-75-120.3v67.2z" />
          <path fill="#aaacce" d="M283.6 394.5L257 424.2l26.6-73.4z" />
          <path fill="#f4dcba" d="M33.6-24.2L2.3 97.7l45.4-68.8z" />
          <path fill="#f6b0a2" d="M129 136.7l32.7 9.4-17.2 39z" />
          <path fill="#ca888d" d="M199.2 107l100 45.3-43.7-42.1z" />
          <path fill="#111724" d="M410.2-24.2l-26.6 36L330.5-.9z" />
          <path fill="#a67477" d="M349.2 186.7l-53.1 6.3v106.2z" />
          <path fill="#d28575" d="M86.7 74.2l-15.6 3.1 15.6-18.7z" />
          <path fill="#f59c8e" d="M36.7 64.8l34.4-25L36.7 107z" />
          <path fill="#170d0b" d="M205.5 152.3h11l1.5 9.4z" />
          <path fill="#5c3526" d="M82 50.8l-14-25h20.3z" />
          <path fill="#a96d6d" d="M179 74.2l45.2 32.8 56.3-39z" />
          <path fill="#aa7e7f" d="M196 150.8l-10.8-20.3 35.9 20.3z" />
          <path fill="#b4836b" d="M66.4 229l4.7 34.3 23.4 28.1z" />
          <path fill="#302a23" d="M114.8 327.3l-20.3-32.8 73.5 32.8z" />
          <path fill="#f5d9b7" d="M-22.7 174.2l86-31.2-46.9 59.3z" />
          <path fill="#6e544d" d="M147.7 361.7l-32.9-31.2 12.5 21.8z" />
          <path fill="#b67368" d="M104 108.6L93 214.8l-17.2-40.6z" />
          <path fill="#e59d89" d="M177.3 74.2l31.3 36-86-6.3z" />
          <path fill="#243049" d="M138.3 54l59.4 17 68.7-26.5z" />
          <path fill="#ea9582" d="M133.6 254L118 88.2l-29.7 70.3z" />
          <path fill="#7d4954" d="M258.6 333.6l-11-31.3 29.7-4.6z" />
          <path fill="#cc9395" d="M157 150.8l73.5 31.2-43.8 28.2z" />
          <path fill="#df8d9a" d="M275.8 255.5l12.5-48.5-14-42.2z" />
          <path fill="#c89b7a" d="M54 191.4l15.5-31.2-6.2-26.6z" />
          <path fill="#d08877" d="M129 247.7l-29.8-70.4-7.8 47z" />
          <path fill="#9691a7" d="M257 358.6l65.7 3.1 34.3-46.9z" />
          <path fill="#ea9d7e" d="M66.4 85.2l20.3 3-11 50z" />
          <path fill="#563d32" d="M68 229l17.2 20.2L69.5 182z" />
          <path fill="#67463d" d="M110.2 86.7l-22-25 4.8 54.7z" />
          <path fill="#9d8d98" d="M380.5 386.7l26.5-71.9-21.8 15.7z" />
          <path fill="#6c6771" d="M218 389.8l9.3-7.8h-7.8z" />
          <path fill="#785a54" d="M382 99.2l7.8-21.9-56.2-14z" />
          <path fill="#744d49" d="M236.7 279L193 264.7l-39 32.9z" />
          <path fill="#cd7d83" d="M244.5 224.2L193 229l18.7 42.2z" />
          <path fill="#e7d0b4" d="M424.2 41.4l-42.2 164-4.7-87.4z" />
          <path fill="#7b4d4c" d="M254 160.2l-8 10.9-39-12.5z" />
          <path fill="#da9983" d="M255.5 163.3h21.8l-25 17.2z" />
          <path fill="#a2405b" d="M200.8 289.8l62.5 20.4-28.1 9.3z" />
          <path fill="#423029" d="M125.8 52.3l-39-32.8 4.6 56.3z" />
          <path fill="#b17381" d="M255.5 291.4l-4.7 11-25-4.7z" />
          <path fill="#343b48" d="M264.8 349.2l7.9-12.5-4.7 1.6z" />
          <path fill="#9a909f" d="M300.8 400.8l-3.1-61-17.2 59.4z" />
          <path fill="#694447" d="M252.3 339.8l6.3-14-56.3-3.1z" />
          <path fill="#fca69e" d="M266.4 252.3l11-70.3-61 11z" />
          <path fill="#e2c9aa" d="M321 271l89.2 40.7-70.4-70.3z" />
          <path fill="#aeacca" d="M304 364.8l-4.8 59.4h40.6z" />
          <path fill="#8b5b4d" d="M77.3 155.5l-9.3-14 40.6-37.6z" />
          <path fill="#946253" d="M96 189.8l-21.8-14 3.1 51.5z" />
          <path fill="#f2eaf6" d="M244.5 385.2l-7.8 37.5 21.9 1.5z" />
          <path fill="#794851" d="M199.2 163.3L177.3 146l18.8 4.7z" />
          <path fill="#dadae9" d="M182 379l-34.3 28-53.2-6.2z" />
          <path fill="#f29c8d" d="M46 108.6l11 36 20.3-18.8z" />
          <path fill="#81555f" d="M232 357l11-37.5-45.3 28.2z" />
          <path fill="#b0b4cb" d="M246 377.3l11-12.5 1.6 45.4z" />
          <path fill="#96685b" d="M388.3 82l-61 29.7 43.8 20.3z" />
          <path fill="#263047" d="M413.3 14.8L289.8 60.2l134.4 9.3z" />
          <path fill="#a23f3b" d="M49.2 93l14 12.5 4.8-11z" />
          <path fill="#d6997d" d="M66.4 207l-7.8 23.5 7.8 17.2z" />
          <path fill="#917060" d="M343 175.8l25-20.3-32.8 7.8z" />
          <path fill="#7e5549" d="M135.2 279l-36-9.5 11 12.5z" />
          <path fill="#95737a" d="M227.3 122.7l7.9 12.5 28 6.2z" />
          <path fill="#bba399" d="M424.2 318l-86-36 54.8 43.8z" />
          <path fill="#7e5838" d="M7 200.8h-31.2v-25z" />
          <path fill="#38425b" d="M118-24.2l-68.8 9.4 1.6 42.1z" />
          <path fill="#857879" d="M313.3 285.2l-4.7 29.6-40.6 32.9z" />
          <path fill="#e58d7b" d="M52.3 27.3L82 85.2 74.2 43z" />
          <path fill="#312826" d="M149.2 299.2l-14 21.9 43.7 1.6z" />
          <path fill="#da9d84" d="M72.7 299.2L68 247.7l37.5 82.8z" />
          <path fill="#f1d7b7" d="M47.7 196l12.5-45.2-78.2-86z" />
          <path fill="#e6aba0" d="M149.2 375.8l-25 9.4 15.6-20.4z" />
          <path fill="#403130" d="M274.2 300.8L257 282l29.7 3.2z" />
          <path fill="#ffa897" d="M66.4 66.4l-18.7 4.7 17.1-37.5z" />
          <path fill="#bf546c" d="M246 311.7l-15.5 9.4-40.7-26.6z" />
          <path fill="#402e31" d="M213.3 124.2l46.9 25-26.6-3.1z" />
          <path fill="#b17e7a" d="M110.2 339.8l9.3 43.8-29.7-11z" />
          <path fill="#b5767f" d="M327.3 135.2l-96.8-40.7 70.3 61z" />
          <path fill="#e2e3fe" d="M263.3 394.5l18.7 11-39 18.7z" />
          <path fill="#6f4846" d="M241.4 286.7l-12.5 9.4-23.4-25z" />
          <path fill="#f1a188" d="M160.2 66.4L119.5 179l1.6-95.3z" />
          <path fill="#352c28" d="M132 349.2l-1.5-31.2 23.4 50z" />
          <path fill="#b97285" d="M274.2 282l-9.4-6.2 28.2-17.2z" />
          <path fill="#685042" d="M105.5 294.5l45.3 12.5H118z" />
          <path fill="#f2dab9" d="M-24.2 5.5l20.3 64 70.3-93.7z" />
          <path fill="#7b4f40" d="M82 163.3l-15.6 6.2 18.8-50z" />
          <path fill="#4a3942" d="M186.7 363.3l51.6-11-21.9 15.7z" />
          <path fill="#0d0e0c" d="M318 169.5l-4.7-1.5 4.7 9.3z" />
          <path fill="#d9776e" d="M46 63.3l-1.5-23.5-7.8 37.5z" />
          <path fill="#f19992" d="M258.6 277.3l20.3-25-62.5-57.8z" />
          <path fill="#d49272" d="M4 200.8l45.2 1.5-68.7 23.5z" />
          <path fill="#918da0" d="M260.2 352.3l3 34.4 17.3-39z" />
          <path fill="#ac7582" d="M235.2 183.6L186.7 157l23.5 25z" />
          <path fill="#5d3e3e" d="M232 130.5l-32.8 4.7-7.8-11z" />
          <path fill="#121821" d="M79 8.6l-9.5 15.6 29.7-14z" />
          <path fill="#d59580" d="M146 105.5l-4.6 23.4 34.4 37.5z" />
          <path fill="#a67571" d="M341.4 211.7l-32.8 48.5 14 6.2z" />
          <path fill="#fef7fa" d="M69.5 369.5L29 329l12.5 87.5z" />
          <path fill="#c1c6e2" d="M185.2 379l15.6 9.3-57.8 26.5z" />
          <path fill="#d18e7e" d="M154 289.8l-26.7-45.3 32.9 31.3z" />
          <path fill="#92635d" d="M205.5 274.2l-20.3-11 43.7 9.5z" />
          <path fill="#6b544c" d="M291.4 302.3l9.4-9.3-18.8-15.7z" />
          <path fill="#e6cdb0" d="M357 164.8l67.2-26.5-87.5 136z" />
          <path fill="#e29097" d="M230.5 213.3l-70.3-39 17.1 71.8z" />
          <path fill="#e5c0a4" d="M343 216.4l-14 28.1 10.8-1.5z" />
          <path fill="#434960" d="M224.2 69.5l-12.5-6.2h34.4z" />
          <path fill="#583f36" d="M363.3 133.6l12.5 14-15.6 15.7z" />
          <path fill="#956067" d="M208.6 349.2l9.4-12.5-45.3-32.8z" />
          <path fill="#b47a60" d="M119.5 79l7.8-18.8h9.4z" />
          <path fill="#2a2427" d="M243 363.3l-51.6 12.5 43.8 3.1z" />
          <path fill="#a87874" d="M141.4 363.3L118 336.7v25z" />
          <path fill="#f0e4e8" d="M97.7 424.2l-3.2-48.4-25-9.4z" />
          <path fill="#a46a60" d="M204 96l-28.2-23.3h48.4z" />
          <path fill="#7b5359" d="M349.2 186.7l-48.4-14-11 14z" />
          <path fill="#352c2c" d="M172.7 379l17.1-23.5-42.1-32.8z" />
          <path fill="#50382e" d="M96 297.7l-10.8-42.2 23.4 40.6z" />
          <path fill="#8f6655" d="M75.8 213.3l42.2 61-23.5-7.9z" />
          <path fill="#b6766c" d="M136.7 261.7l9.4 18.8-40.6-11z" />
          <path fill="#a9807f" d="M157 385.2l-3-9.4-15.7 7.8z" />
          <path fill="#f7bda3" d="M61.7 280.5l-46.9 21.8 72 64.1z" />
          <path fill="#a06a73" d="M202.3 72.7l67.2-7.9 81.3 75z" />
          <path fill="#987075" d="M291.4 189.8l1.6 26.6 53-29.7z" />
          <path fill="#d4a08f" d="M33.6 329l15.6 4.6-23.4-17.2z" />
          <path fill="#c0ba96" d="M389.8 82l3.2-6.2 17.2 4.7z" />
          <path fill="#e6cdad" d="M322.7 268l51.5 6.2-53.1 7.8z" />
          <path fill="#b37c7b" d="M208.6 99.2l32.8 31.3-40.6-22z" />
          <path fill="#22181b" d="M357 157l-12.5-7.8-18.7 9.4z" />
          <path fill="#efaa87" d="M64.8 202.3l-81.2 31.3 76.6 15.6z" />
          <path fill="#cda19b" d="M72.7 366.4l-12.5-15.6 25 15.6z" />
          <path fill="#ab7e64" d="M88.3 302.3l-1.6-28 14 39z" />
          <path fill="#443b37" d="M129 49.2l-23.5-39 4.7 37.5z" />
          <path fill="#775748" d="M160.2 296l-28.2 9.5 11-12.5z" />
          <path fill="#98717b" d="M225.8 144.5l-18.8-6.2-4.7 12.5z" />
          <path fill="#bc7b87" d="M279 196l14-3-6.3-32.8z" />
          <path fill="#7f5d57" d="M188.3 321l-21.9-23.3v10.9z" />
          <path fill="#222d44" d="M211.7 10.2l-90.6 25 136 29.6z" />
          <path fill="#8d5952" d="M241.4 152.3l32.8 1.6-28.1 17.2z" />
          <path fill="#78818a" d="M177.3 377.3l9.4-3 1.6 4.6z" />
          <path fill="#666067" d="M249.2 371l-11 11 6.3-11z" />
          <path fill="#f3d8b6" d="M54 161.7L29 64.8l-9.5 137.5z" />
          <path fill="#9b8688" d="M341.4 314.8l-46.9 12.5 20.3-43.7z" />
          <path fill="#e1c9cc" d="M-18 302.3l34.4 53.2-40.6 7.8z" />
          <path fill="#ce8d91" d="M244.5 132l-34.3-32.8 59.3 26.6z" />
          <path fill="#f0998e" d="M147.7 268l28-40.7-71.8-103z" />
          <path fill="#9b99a7" d="M221 388.3l-10.8 36H193z" />
          <path fill="#d6927a" d="M257 189.8l4.7-23.4-26.5 15.6z" />
          <path fill="#7f7180" d="M302.3 171l4.7-4.6 9.4 11z" />
          <path fill="#695263" d="M343 171h-18.8l-15.6-12.4z" />
          <path fill="#fdaba3" d="M257 241.4l-7.8-37.5 29.7-36z" />
          <path fill="#ed9d8c" d="M54 143l4.6-37.5L32 77.3z" />
          <path fill="#e5a892" d="M63.3 286.7l28.1 15.6 9.4 40.7z" />
          <path fill="#fff9ff" d="M-24.2 302.3l11 115.7 25-22z" />
          <path fill="#ba7a68" d="M161.7 139.8l-3.1-31.2 28.1 51.6z" />
          <path fill="#ffb391" d="M69.5 105.5l11 1.5-6.3-14z" />
          <path fill="#d98073" d="M72.7 39.8l-9.4 15.7 7.8 9.3z" />
          <path fill="#1f2841" d="M414.8 77.3L247.7-24.2l-147 29.7z" />
          <path fill="#e7d1b4" d="M375.8 147.7L391.4 82l32.8 70.3z" />
          <path fill="#bd7e6c" d="M97.7 111.7l-6.3 34.4 23.4-46.9z" />
          <path fill="#333946" d="M380.5 16.4l14 32.8 29.7-7.8z" />
          <path fill="#ab6e75" d="M313.3 261.7l-25 17.2V174.2z" />
          <path fill="#875958" d="M204 110.2l17 17.1-31.2-10.9z" />
          <path fill="#8f5862" d="M247.7 314.8l25-3-45.4 31.2z" />
          <path fill="#cfc2c5" d="M57 424.2L8.6 355.5l15.6 43.7z" />
          <path fill="#a57169" d="M189.8 291.4l18.8-6.2 14 4.6z" />
          <path fill="#b15052" d="M57 102.3l15.7-26.5-25 15.6z" />
          <path fill="#aa7d7c" d="M338.3 225.8l11-34.4-43.8 12.5z" />
          <path fill="#46323e" d="M299.2 164.8l23.5-3-1.6-6.3z" />
          <path fill="#f6f2fd" d="M225.8 424.2l-11-14 9.4-22z" />
          <path fill="#c27381" d="M188.3 254l26.5-28.2 11 12.5z" />
          <path fill="#fbf1f7" d="M33.6 386.7l71.9-3.1-81.3-21.9z" />
          <path fill="#8a5c55" d="M93 124.2l-14-7.8L118 82z" />
          <path fill="#8a919d" d="M216.4 382l-11 6.3-7.7-4.7z" />
          <path fill="#f69279" d="M66.4 32l-15.6-1.5-9.4 11z" />
          <path fill="#433335" d="M233.6 352.3l6.2-14 22-11z" />
          <path fill="#e58c80" d="M243 238.3l-9.4-17.2-7.8 31.2z" />
          <path fill="#83544f" d="M174.2 268l43.8 29.7-53.2-17.2z" />
          <path fill="#d98e76" d="M55.5 147.7l20.3-12.5 11-32.9z" />
          <path fill="#7b584a" d="M114.8 79L132 55.4 99.2 77.3z" />
          <path fill="#dfd7db" d="M54 419.5l28-4.7-25-23.4z" />
          <path fill="#9d6958" d="M161.7 121l39 22-28-29.7z" />
          <path fill="#a899a6" d="M338.3 319.5l54.7-3-6.3 28z" />
          <path fill="#64443e" d="M93 89.8l-4.7 22 23.4-31.3z" />
          <path fill="#ba6e65" d="M72.7 39.8l10.9 12.5v20.4z" />
          <path fill="#89705d" d="M344.5 163.3l3.2 29.7 4.6-23.5z" />
          <path fill="#b17279" d="M274.2 121l-57.8-18.7 23.4-28z" />
          <path fill="#985a4f" d="M99.2 258.6l28.1 6.2-9.3-17.1z" />
          <path fill="#715d50" d="M324.2 260.2l-9.4 20.3V271z" />
          <path fill="#da8594" d="M280.5 264.8l-14 7.9 14-47z" />
          <path fill="#262222" d="M275.8 324.2l-25 42.2-26.6 4.7z" />
          <path fill="#b37362" d="M132 249.2l-51.5-28.1 20.3 32.8z" />
          <path fill="#272120" d="M141.4 343l25 29.7 25 1.5z" />
          <path fill="#eda085" d="M111.7 116.4l18.8-50 34.3 3.1z" />
          <path fill="#231514" d="M202.3 152.3l7.9 3.2v3z" />
          <path fill="#9b636c" d="M282 63.3l93.8 75L266.4 93z" />
          <path fill="#b1776b" d="M121 296l8-14 37.4 6.3z" />
          <path fill="#f3d8b6" d="M32 29l12.5 170.2-64-7.8z" />
          <path fill="#a0a2ba" d="M255.5 361.7l11-1.5-8 37.5z" />
          <path fill="#4a3a39" d="M314.8 279L304 293l1.6-9.4z" />
          <path fill="#9f7475" d="M314.8 268l-14 1.5 1.5 17.2z" />
          <path fill="#d3898a" d="M171 260.2l18.8-23.5 48.5 21.9z" />
          <path fill="#dea183" d="M39.8 207l25-7.8-6.2-12.5z" />
          <path fill="#a6a4bd" d="M374.2 396L343 363.4l-15.7 61z" />
          <path fill="#f8ada1" d="M132 160.2l7.8-18.8 26.6 48.4z" />
          <path fill="#cb9786" d="M14.8 299.2l-7.8-14h4.7z" />
          <path fill="#c66155" d="M71 119.5l-14-18.7 4.7 18.7z" />
          <path fill="#302728" d="M291.4 311.7l-25 11 1.6 10.9z" />
          <path fill="#a24c60" d="M218 285.2l36 31.2-17.3 9.4z" />
          <path fill="#64453a" d="M80.5 182L71 171l-4.7 9.5z" />
          <path fill="#7c5158" d="M236.7 288.3l12.5-7.8 15.6 1.5z" />
          <path fill="#b77781" d="M249.2 135.2l34.4 17.1 45.3-15.6z" />
          <path fill="#774b4f" d="M307 179l-15.6 3 6.3-20.3z" />
          <path fill="#cd8174" d="M86.7 161.7l15.6-37.5-4.6 75z" />
          <path fill="#f1b196" d="M36.7 252.3l46.9 93.8-28.1-139z" />
          <path fill="#ad6f5e" d="M4 275.8L-7 246l-17.2 31.2z" />
          <path fill="#887c88" d="M288.3 333.6L271 364.8l3.1-25z" />
          <path fill="#a7766f" d="M191.4 293h-18.7v6.2z" />
          <path fill="#9b998f" d="M47.7 8.6L43-24.2l7.8 12.5z" />
          <path fill="#bf505b" d="M57 36.7l-11 7.8 1.7 11z" />
          <path fill="#664639" d="M85.2 274.2L82 254l17.2 17.2z" />
          <path fill="#8a545d" d="M225.8 172.7l18.7-12.5-31.2 6.2z" />
          <path fill="#56393d" d="M236.7 149.2l4.7 12.5-23.4-3.1z" />
          <path fill="#a16f62" d="M82 154l3.2-25 12.5-8z" />
          <path fill="#df9c96" d="M196 183.6l-42-23.4 17 43.7z" />
          <path fill="#594d47" d="M396 72.7l-14 6.2-7.8-4.7z" />
          <path fill="#d2826c" d="M83.6 74.2l7.8 9.4L63.3 93z" />
          <path fill="#b88780" d="M194.5 139.8l-12.5 1.6 26.6 9.4z" />
          <path fill="#201913" d="M313.3 166.4l14 6.3-1.5 4.6z" />
          <path fill="#252a35" d="M364.8 14.8l54.7-39-11 50z" />
          <path fill="#f8aa97" d="M72.7 63.3l6.2 7.8-25-6.3z" />
          <path fill="#cb877f" d="M186.7 80.5l40.6 31.2h-28z" />
          <path fill="#fcf0ea" d="M74.2 366.4l1.6 12.5-20.3-26.6z" />
          <path fill="#a74237" d="M69.5 116.4h-4.7v-14z" />
          <path fill="#4e4053" d="M330.5 61.7l-15.7 3.1-3-4.6z" />
          <path fill="#d59a8a" d="M82 291.4l25 31.3-3 21.8z" />
          <path fill="#764c47" d="M193 130.5l32.8-3.2-50-12.5z" />
          <path fill="#ca6471" d="M219.5 310.2l-11 10.9v-21.9z" />
          <path fill="#b45557" d="M50.8 77.3l11 18.8 12.4-20.3z" />
          <path fill="#453734" d="M174.2 319.5l3.1 43.8-23.4-64z" />
          <path fill="#283148" d="M219.5 60.2L116.5 43l46.8 23.4z" />
          <path fill="#c35658" d="M54 36.7L43 55.5l17.2-15.7z" />
          <path fill="#e5dfea" d="M88.3 382l59.4 7.8-64.1 11z" />
          <path fill="#a3755a" d="M72.7 238.3l-9.4-18.8 4.7-6.2z" />
          <path fill="#6b3a3d" d="M214.8 321l17.2 4.8-23.4 3.1z" />
          <path fill="#313753" d="M85.2 11.7L122.7-18 68 4z" />
          <path fill="#5b4337" d="M135.2 50.8l-36 3.1-7.8 31.3z" />
          <path fill="#543c30" d="M83.6 241.4l-14-39L71 232z" />
          <path fill="#e6cfb2" d="M394.5 80.5l-20.3 54.7 50-45.4z" />
          <path fill="#332d2a" d="M100.8 11.7v40.6l-23.5-28z" />
          <path fill="#6b4d4f" d="M204 355.5l-25-39-1.7 17z" />
          <path fill="#6b4d49" d="M158.6 300.8l9.4 14 7.8-31.2z" />
          <path fill="#8e3d46" d="M216.4 296l-23.4-6.2 4.7 7.9z" />
          <path fill="#926b66" d="M104 374.2l10.8 7.8-12.5-3z" />
          <path fill="#fefffe" d="M-.8 299.2l15.6 51.6 47 15.6z" />
          <path fill="#6d4d52" d="M358.6 138.3l-23.4 11 14-1.6z" />
          <path fill="#542b20" d="M88.3 49.2L75.8 33.6l1.5 7.8z" />
          <path fill="#f1e3e8" d="M19.5 371l-4.7-20.2L43 388.3z" />
          <path fill="#ab927e" d="M354 175.8l4.6-12.5-7.8 1.5z" />
          <path fill="#fff0e9" d="M4 282l-17.3-4.7L18 316.4z" />
          <path fill="#b26f63" d="M77.3 186.7l18.8 28.1 1.6-34.3z" />
          <path fill="#a46d74" d="M294.5 158.6l50-15.6-1.5-20.3z" />
          <path fill="#bbc5e0" d="M189.8 379l11 9.3-18.8-1.6z" />
          <path fill="#a59089" d="M310.2 299.2l6.2-21.9 46.9 40.7z" />
          <path fill="#785160" d="M230.5 152.3l-4.7-9.3-7.8 9.3z" />
          <path fill="#d49688" d="M191.4 172.7l-36-6.3v-28.1z" />
          <path fill="#684132" d="M66.4 30.5l14-4.7-6.2 9.4z" />
          <path fill="#554142" d="M277.3 302.3L307 293l-25 23.4z" />
          <path fill="#1a2238" d="M249.2-24.2L136.7 10.2 19.5-24.2z" />
          <path fill="#99625a" d="M118 66.4l26.5-6.2-9.3-3.2z" />
          <path fill="#cd9278" d="M69.5 244.5L64.8 257l22 26.6z" />
          <path fill="#c78974" d="M157 144.5l-4.7-39 14.1 26.5z" />
          <path fill="#523634" d="M230.5 288.3l1.5-12.5 9.4 7.8z" />
          <path fill="#7e5553" d="M249.2 138.3l14 15.6 3.2-6.2z" />
          <path fill="#c38b85" d="M86.7 371l23.5-46.8 3 23.5z" />
          <path fill="#f7bda2" d="M13.3 288.3l51.5-4.7-17.1 53.1z" />
          <path fill="#926b5b" d="M130.5 302.3l-7.8-9.3-14.1 1.5z" />
          <path fill="#80384c" d="M260.2 308.6l-17.2-3.1 21.8-6.3z" />
          <path fill="#d79a7f" d="M64.8 160.2l6.3-12.5-11-3.2z" />
          <path fill="#c2aa8f" d="M329 264.8l3-9.3-14 15.6z" />
          <path fill="#c68a96" d="M191.4 199.2l11-26.5 18.7 10.9z" />
          <path fill="#9e9eb5" d="M255.5 396l32.8-50v25z" />
          <path fill="#e6aba0" d="M149.2 380.5l-20.3-1.6 3.1-9.4z" />
          <path fill="#92676c" d="M169.5 380.5l-28 3 20.2-9.3z" />
          <path fill="#d5a58e" d="M16.4 302.3v4.7l11 6.3z" />
          <path fill="#e2947b" d="M86.7 108.6L85.2 71l-12.5-1.6z" />
          <path fill="#2b2622" d="M150.8 310.2l-4.7 48.4-23.4-48.4z" />
          <path fill="#f2d7b6" d="M44.5 194.5l-36 6.3-25-128.1z" />
          <path fill="#382f2a" d="M97.7 289.8l39 32.9-15.6 12.5z" />
          <path fill="#bd8a87" d="M161.7 379l-15.6-1.7-3.1-14z" />
          <path fill="#e89484" d="M39.8 97.7l-4.6-23.5 23.4 31.3z" />
          <path fill="#e7a480" d="M64.8 222.7l-84.3 6.2 78-28.1z" />
          <path fill="#bf8273" d="M158.6 113.3l34.4-1.6-22-6.2z" />
          <path fill="#be7e78" d="M185.2 308.6l35.9 11h-29.7z" />
          <path fill="#986a62" d="M341.4 135.2l37.5-25-6.2 26.5z" />
          <path fill="#f2d8b6" d="M14.8 129l23.5 67 21.9-48.3z" />
          <path fill="#3a455b" d="M50.8-24.2h40.6l-39 51.5z" />
          <path fill="#8d6772" d="M247.7 66.4l23.4 7.8 20.3-11z" />
          <path fill="#f3ab94" d="M39.8 46l1.6-7.7 14-7.8z" />
          <path fill="#7a5a4a" d="M100.8 258.6l-9.4 3.1-11-28.1z" />
          <path fill="#663d3b" d="M210.2 275.8l1.5 7.8 11-12.5z" />
          <path fill="#7b5547" d="M72.7 157v48.5l7.8-25z" />
          <path fill="#9e96ae" d="M391.4 413.3l-9.4-53.1-7.8 40.6z" />
          <path fill="#774e3f" d="M124.2 274.2l-11 3.1-1.5 15.7z" />
          <path fill="#eb968d" d="M119.5 238.3v-57.8l48.5 25z" />
          <path fill="#ebdee6" d="M18 424.2h17.2L7 371.1z" />
          <path fill="#eead90" d="M46 254l9.5-53.2 17.2 76.5z" />
          <path fill="#dbc09d" d="M52.3 177.3v-10.9l9.4-12.5z" />
          <path fill="#9d8e99" d="M336.7 304l23.5 14-53.2 18.7z" />
          <path fill="#d29479" d="M121 77.3v14.1l14.2-29.7z" />
          <path fill="#915e5d" d="M183.6 318l36 3-31.3 6.3z" />
          <path fill="#c07687" d="M283.6 272.7v-20.4L268 279z" />
          <path fill="#79503b" d="M94.5 302.3l12.5 11L94.5 293z" />
          <path fill="#a34b47" d="M69.5 80.5h6.3L69.5 71z" />
          <path fill="#975d47" d="M93 86.7l-6.3-9.4 1.6-9.3z" />
          <path fill="#9e6756" d="M104 235.2l-3.2 18.7-3.1-20.3z" />
          <path fill="#6e534c" d="M130.5 352.3l-4.7-12.5 12.5 17.2z" />
          <path fill="#694d4d" d="M371 135.2l-20.2 14 6.2-12.5z" />
          <path fill="#ffa697" d="M58.6 64.8L39.8 85.2l18.8-40.7z" />
          <path fill="#72525b" d="M199.2 158.6l6.3-7.8-20.3-1.6z" />
          <path fill="#dc8a93" d="M194.5 188.3l-4.7 40.6 39.1-4.7z" />
          <path fill="#595a68" d="M255.5 357v7.8l7.8-15.6z" />
          <path fill="#352524" d="M368 143l-18.8 12.5 20.3-6.3z" />
          <path fill="#715659" d="M243 139.8l4.7-3-18.8-4.8z" />
          <path fill="#f3a291" d="M108.6 136.7L157 143l-40.6-34.4z" />
          <path fill="#a8746f" d="M222.7 268l-14.1 3-20.3-10.8z" />
          <path fill="#232a42" d="M300.8 4l-81.3 43.7 112.5 14z" />
          <path fill="#e0c7a9" d="M424.2 232l-61 54.7 45.4 23.5z" />
          <path fill="#8c5b5d" d="M322.7 64.8l17.1 43.8 40.7-23.4z" />
          <path fill="#f0978b" d="M225.8 254l18.7-29.8 9.4 26.6z" />
          <path fill="#b16b57" d="M50.8 30.5H68l-7.8-3.2z" />
          <path fill="#3b262a" d="M238.3 144.5l-9.4-12.5-17.2 1.6z" />
          <path fill="#ae7179" d="M307 204l-6.2 73.3 36-54.6z" />
          <path fill="#f4d9b7" d="M46 29L5.6 110.1-14.8-24.2z" />
          <path fill="#6c4542" d="M247.7 166.4l9.3-17.2-4.7-4.7z" />
          <path fill="#ecb39d" d="M79 302.3l-26.7 18.8 28.2 15.6z" />
          <path fill="#c47f73" d="M105.5 252.3l17.2-10.9-11-7.8z" />
          <path fill="#a46d77" d="M247.7 289.8l12.5 9.4-29.7-4.7z" />
          <path fill="#c47e76" d="M244.5 261.7l1.6 15.6-26.6-23.4z" />
          <path fill="#ebe9f8" d="M225.8 386.7l-1.6 31.3-9.4-6.3z" />
          <path fill="#e5ccaf" d="M421 204l-82.7 25-12.5 51.5z" />
          <path fill="#866a62" d="M311.7 272.7l12.5-11v-9.4z" />
          <path fill="#704c4b" d="M249.2 282l-18.7-6.2 4.7-3.1z" />
          <path fill="#b1acc1" d="M399.2 344.5l-7.8 26.6 29.7 9.4z" />
          <path fill="#8f8b97" d="M241.4 388.3l-9.4-4.7 15.7-6.3z" />
          <path fill="#594343" d="M271 293l12.6 9.3-15.6 17.2z" />
          <path fill="#de9989" d="M204 105.5h-45.4L171 72.7z" />
          <path fill="#856164" d="M161.7 372.7l-14-4.7 9.3 6.2z" />
          <path fill="#fffcff" d="M72.7 405.5h17.1L58.6 382z" />
          <path fill="#d38e83" d="M161.7 282l-39-48.4 17.1 40.6z" />
          <path fill="#fca79f" d="M269.5 171l-21.8 64.2L268 257z" />
          <path fill="#e19d99" d="M219.5 207l-6.2-15.6 21.9-9.4z" />
          <path fill="#f5b695" d="M55.5 279L3.9 247.6l12.5 51.5z" />
          <path fill="#6f727f" d="M194.5 377.3l11 7.9-1.6-7.9z" />
          <path fill="#ae7078" d="M274.2 166.4l36-20.3h-37.5z" />
          <path fill="#835f5a" d="M332 158.6l14 20.3-1.5-20.3z" />
        </g>
      </svg>