<svg xmlns="http://www.w3.org/2000/svg" viewBox="0 0 400 400">
        <path fill="#a5807c" d="M0 0h400v400H0z" />
        <g fill-opacity=".5">
          <path fill="#000019" d="M11.7 11.7l412.5-36-54.7 147z" />
          <path fill="#ffffe8" d="M114.8 424.2l-139-31.2 36-417.2z" />
          <path fill="#3b1f24" d="M204 413.3l118.7-132.8L60.2 271z" />
          <path fill="#ffd" d="M424.2 318L397.7 74.2 321 279z" />
          <path fill="#ff9b8b" d="M133.6 289.8L307 244.5-5.5-24.2z" />
          <path fill="#00152d" d="M424.2 5.5L94.5 82 38.3-24.2z" />
          <path fill="#fffeff" d="M304 400.8l-328.2-59.4 48.4 82.8z" />
          <path fill="#af6866" d="M399.2 72.7l-78.1 167.1L43 60.2z" />
          <path fill="#a1b7de" d="M383.6 286.7L164.8 424.2h259.4z" />
          <path fill="#ffe1b1" d="M44.5-24.2l25 307.8-93.7-257.8z" />
          <path fill="#fb9b76" d="M54 183.6l87.4 240.6-165.6-173.4z" />
          <path fill="#1a1c18" d="M149.2 380.5l-64-106.3 167.1 98.5z" />
          <path fill="#73462e" d="M77.3 288.3l37.5-240.6-54.6 101.5z" />
          <path fill="#1b1c1f" d="M335.2 191.4l50-54.7-87.5 23.5z" />
          <path fill="#ffb492" d="M77.3 172.7l132.9-78.2-76.6-36z" />
          <path fill="#001c3b" d="M419.5-24.2L232 52.3l189 25z" />
          <path fill="#ff9ea2" d="M272.7 283.6l14-121.9-176.5 57.8z" />
          <path fill="#3f292f" d="M277.3 152.3L179 108.6l28.1 65.6z" />
          <path fill="#fff" d="M24.2 382l86 36-134.4-159.4z" />
          <path fill="#b3616b" d="M197.7 363.3l-37.5-121.9 115.6 70.3z" />
          <path fill="#0d161a" d="M304 294.5l-73.5 54.7 6.2 37.5z" />
          <path fill="#ffe9c1" d="M-24.2 10.2L13.3 218 50.8-19.5z" />
          <path fill="#e9826f" d="M58.6 210.2L39.8 39.8 91.4 54z" />
          <path fill="#b57481" d="M288.3 182l48.4-121.8L213.3 71z" />
          <path fill="#744833" d="M105.5 316.4L60.2 211.7l73.4 45.3z" />
          <path fill="#bb7d7c" d="M169.5 383.6l-79.7-4.7 7.9-56.2z" />
          <path fill="#f3d4ae" d="M313.3 288.3l101.5 14 9.4-271.8z" />
          <path fill="#d6e4ff" d="M257 388.3l-173.4-4.7 37.5 40.6z" />
          <path fill="#ffa492" d="M172.7 271l-84.4-96.8 54.7-114z" />
          <path fill="#3f2f20" d="M91.4 122.7l36-73.5-42.2-73.4z" />
          <path fill="#1a2b46" d="M175.8 72.7L7-24.3 424.2 43z" />
          <path fill="#a16160" d="M113.3 300.8L219.5 232l42.2 87.5z" />
          <path fill="#942c32" d="M49.2 75.8l15.6 43.7 9.4-45.3z" />
          <path fill="#e89e79" d="M-24.2 196L96 314.9l-39-114z" />
          <path fill="#2f1e1f" d="M305.5 160.2l68.7-4.7-1.5-23.5z" />
          <path fill="#998f98" d="M329 277.3l-83 93.8 178.2-51.6z" />
          <path fill="#fff" d="M-24.2 319.5L97.7 424.2-18 254z" />
          <path fill="#20211b" d="M166.4 294.5l-57.8 26.6 67.2 56.2z" />
          <path fill="#ffb4a5" d="M229 197.7l37.4 71.8L279 163.3z" />
          <path fill="#644741" d="M286.7 286.7l-106.2-25-15.7 34.4z" />
          <path fill="#e58688" d="M185.2 319.5l-6.3-29.7 56.3 26.6z" />
          <path fill="#fcbba1" d="M54 208.6L5.4 302.3l86 73.5z" />
          <path fill="#e6ccae" d="M424.2 161.7H343l51.5 164z" />
          <path fill="#bd7866" d="M164.8 289.8L75.8 182 121 304z" />
          <path fill="#94655c" d="M205.5 107l-56.3 7.8L207 182z" />
          <path fill="#fdd9b4" d="M-24.2 188.3l104.7-71.9-36 84.4z" />
          <path fill="#503946" d="M352.3 186.7l-60.9-1.5 11-31.3z" />
          <path fill="#a36c77" d="M352.3 174.2L308.6 318l-31.3-97z" />
          <path fill="#9c6767" d="M372.7 144.5l15.6-61-214-12.4z" />
          <path fill="#d99396" d="M246 105.5L169.6 96l120.3 53.1z" />
        </g>
      </svg>